<?xml version="1.0" encoding="utf-8"?>
<!-- Generator: Adobe Illustrator 24.3.0, SVG Export Plug-In . SVG Version: 6.00 Build 0)  -->
<svg version="1.0" id="katman_1" xmlns="http://www.w3.org/2000/svg" xmlns:xlink="http://www.w3.org/1999/xlink" x="0px" y="0px"
	 viewBox="0 50 841.89 400" style="enable-background:new 0 0 841.89 595.28;" xml:space="preserve">
<style type="text/css">
	.st0{fill:#EB611C;}
</style>
<path class="st0" d="M180.25,305.25c-3.13-3.89-7.15-6.97-11.73-8.96c-4.74-2.22-9.9-3.38-15.13-3.4
	c-5.02-0.07-9.99,1.04-14.51,3.24c-4.25,2.11-8.03,5.05-11.11,8.65c-3.15,3.7-5.6,7.94-7.25,12.51c-1.77,4.85-2.66,9.98-2.62,15.14
	c-0.04,5.15,0.8,10.27,2.47,15.14c1.57,4.61,4.03,8.86,7.25,12.51c3.17,3.6,7.06,6.49,11.42,8.5c4.7,2.12,9.81,3.17,14.97,3.09
	c5.23-0.02,10.41-1.01,15.28-2.93c4.73-1.74,8.93-4.66,12.19-8.5l28.09,34.3c-6.38,6.18-14.61,11.02-24.7,14.52
	c-10.33,3.54-21.18,5.32-32.1,5.25c-11.57,0.1-23.07-1.79-34.01-5.56c-10.15-3.49-19.48-9-27.43-16.22
	c-7.85-7.22-14.09-16.01-18.32-25.8c-4.45-10.09-6.68-21.52-6.68-34.29c0-12.56,2.23-23.89,6.68-33.98
	c4.24-9.79,10.48-18.58,18.32-25.8c7.97-7.22,17.29-12.79,27.43-16.37c10.81-3.86,22.22-5.79,33.7-5.72
	c5.54,0,11.07,0.52,16.51,1.54c5.34,1,10.6,2.4,15.74,4.17c4.85,1.66,9.5,3.84,13.89,6.49c3.98,2.39,7.66,5.24,10.97,8.49
	L180.25,305.25z"/>
<path class="st0" d="M336.45,409.36v-20.08h-0.62c-4.94,7.83-11.99,13.85-21.15,18.07c-9.14,4.22-19.1,6.38-29.17,6.33
	c-11.53,0-21.82-2.27-30.87-6.8c-8.84-4.36-16.67-10.51-23-18.07c-6.39-7.72-11.26-16.58-14.36-26.11
	c-3.31-9.96-4.97-20.4-4.94-30.89c-0.04-10.46,1.68-20.85,5.09-30.74c3.19-9.43,8.11-18.17,14.51-25.8
	c6.28-7.42,14.07-13.42,22.84-17.61c8.95-4.33,18.99-6.49,30.1-6.49c11.32,0,20.89,2.16,28.71,6.49
	c7.82,4.33,13.89,9.06,18.21,14.21h0.62v-84.5h50.63v221.98H336.45z M334.6,332.13c0-4.96-0.89-9.87-2.62-14.52
	c-1.69-4.63-4.2-8.92-7.41-12.66c-3.22-3.73-7.16-6.77-11.58-8.96c-4.81-2.33-10.09-3.49-15.43-3.4c-5.44-0.12-10.83,1.05-15.74,3.4
	c-8.8,4.27-15.44,11.99-18.37,21.32c-1.54,4.69-2.32,9.59-2.32,14.52c0.01,4.98,0.79,9.93,2.32,14.67
	c1.46,4.68,3.82,9.04,6.95,12.82c3.14,3.75,7.03,6.8,11.42,8.96c4.91,2.35,10.3,3.52,15.74,3.4c5.34,0.1,10.63-1.07,15.43-3.4
	c4.42-2.18,8.35-5.23,11.58-8.96c3.21-3.74,5.72-8.03,7.41-12.66C333.71,342,334.6,337.09,334.6,332.13"/>
<path class="st0" d="M715.05,409.36h-54.64l-60.5-153.85h55.87l32.41,99.79h0.93l32.42-99.79h54.02L715.05,409.36z"/>
<path class="st0" d="M583.67,266.73l-0.02-0.09L583.67,266.73L583.67,266.73z"/>
<path class="st0" d="M580.49,338.55c-0.25-0.4,0.98-3.24,1.14-3.79c7.1-25.88,6.7-53.26-1.17-78.92l-43.53,15.84
	c1.83,8.05,2.75,16.29,2.76,24.54c-16.86-10.7-34.48-19.59-53.6-25.47c-7-2.15-16.68-3.83-21.86-9.51
	c-3.46-3.8-3.98-12.15-1.11-17.87c3.26-6.48,10.6-11.45,18.7-12.65c11.25-1.67,23.36,1.54,33.17,7.87l29.32-34.81
	c-19.45-15.26-44.01-23.5-69.41-19.72c-23.5,3.49-43.64,17.74-53.88,38.12c-10.47,20.83-8.86,46.22,3.42,64.47
	c-5.06,4.32-9.5,9.32-13.19,14.86c-14.81,22.32-15.95,52.3-2.84,74.6c7.29,12.4,18.85,22.57,33.42,29.4
	c12.16,5.64,25.42,8.53,38.83,8.47c9.14-0.01,18.23-1.28,27.02-3.76c15.93-4.49,30.59-12.63,42.82-23.78
	c1.86,7.46,2.77,15.12,2.71,22.81h47.13C600.32,383.21,593.66,359.53,580.49,338.55 M461.79,362.78c-4.12-1.93-9.69-5.34-12.78-10.6
	c-3.97-6.75-3.33-17.32,1.48-24.58c7.09-10.69,18.88-12.1,30.33-8.55c16.49,5.14,31.6,13.96,44.18,25.81
	C509.68,364.35,481.96,372.23,461.79,362.78"/>
</svg>
