<?xml version="1.0" encoding="utf-8"?>
<!-- Generator: Adobe Illustrator 26.0.1, SVG Export Plug-In . SVG Version: 6.00 Build 0)  -->
<svg version="1.1" id="Layer_1" xmlns="http://www.w3.org/2000/svg" xmlns:xlink="http://www.w3.org/1999/xlink" x="0px" y="0px"
	 viewBox="0 0 980.2 383.3" style="enable-background:new 0 0 980.2 383.3;" xml:space="preserve">
<style type="text/css">
	.st0{fill:#EF4135;}
	.st1{fill:#FFFFFF;}
</style>
<g>
	<g>
		<path class="st0" d="M969.8,175.8c-0.1-3.6,3.7-1.2,5.4-2.2c1.4-0.8,2.8-1.7,4-2.8c0.6-0.6,1-1.7,1-2.6c-0.2-2.8-2.7-5.5-5.7-5.9
			c-1.6-0.2-2.9,0-3.3,2.4c-0.3,2.2-2.9,3.2-4.3,2.6c-2.3-1.1-3.1-6.5-0.7-7.5c3.3-1.5,4.5-4.2,5.7-7.1c-0.7-0.3-1.2-0.6-1.8-0.9
			c-0.8-0.5-1.6-1-2.4-1.5c1.4-3.4,1.4-3.4-1.1-7.1c0.6-0.7,1.3-1.4,1.9-2.1c-0.7-0.5-1.4-1.3-2.2-1.5c-1.4-0.4-3.1,1.3-4.4-0.7
			c1.8-2.5,3.5-4.9,5.3-7.4c-4.7-1.6-9.6-0.6-14.4-0.5c-9.8,0.1-19.6,1-29.4-0.1c-5.1-0.6-10.2-2.2-15.5,0.1
			c-1.6,0.7-3.9,0.2-5.8-0.2c-5.5-1.3-11-1.8-16.6-1.7c-2.3,0.1-4.6-0.1-6.8-0.6c-11.6-2.6-23.3-3.1-35.1-3.2
			c-6.5-0.1-13.1-0.8-19.5-1.5c-1.8-0.2-3.8-1.2-5-2.6c-1.7-1.8,0.3-3.5,1.2-5.2c0.4-0.8,0.5-1.8,0.9-3c-1.8-0.7-3.5-1.3-5.5-2
			c2.6-2.6,5.7-4.5,7-7.3c2.2-4.9,5-8.3,10.7-8.7c2.1-0.2,3.4-1.8,4.3-3.6c0.5-1.1,1.5-2.5,1.1-3.4c-0.4-0.9-2-1.6-3.2-1.7
			c-4.1-0.5-8.3-0.6-12.5-0.9c0.5-1.7,1-3.4,1.4-5c-0.8-0.5-1.3-1.2-1.9-1.2c-13.3-0.6-26.6-0.7-39.9-0.2
			c-6.5,0.2-12.9-0.8-19.4-0.8c-1.9,0-3.9-0.7-4.8-2.8c-0.7-0.2-1.4-0.5-2-0.7c0.7,0.3,1.4,0.5,2.1,0.8c-3,2.4-6.5,3.4-10.1,2.9
			c-3.3-0.4-6.5-0.3-9.8,0.1c-1.5,0.2-3.7,0-4.6-0.9c-2.3-2.6-5.1-2.4-8.1-2.3c-9.2,0.1-18.3,0.4-27.4-1.4c-4.1-0.8-8.5-1-12.6-0.4
			c-5,0.6-9.8,0.4-14.7-0.3c-0.6-0.1-1-0.7-1.7-1.2c0.1-1.4,0.3-2.9,0.4-4.4c-1.4-0.6-2.7-1.2-4.5-2c2.9-0.5,5.2-0.6,7.2-1.3
			c2.5-0.9,4.8-1.7,7.4-0.8c1.2,0.4,1.7-0.9,1.2-2.8c-0.8-2.6-0.8-2.6,1.5-5.7c1.2,0.9,2.4,1.9,3.5,2.6c2.5-1.6,4.9-3.3,7.4-4.5
			c1.5-0.7,3.2-0.3,4.1,1.6c0.4,0.8,1.3,1.4,1.8,2.1c0.8-0.1,1.5,0,2.1-0.2c2.7-1.1,5-4.1,8.6-1.4c0.7,0.6,3.2-0.4,4.4-1.3
			c2-1.6,3.5-3.7,4.5-4.7c4.7-0.5,8.2-0.9,11.7-1.4c0.5-0.1,0.9-0.8,1.2-1.2c0-1.4,0-2.7,0-4c-1.4-1.1-2.7-2.2-4.4-3.5
			c5.5-2.1,10.5-3.3,15.8-2.4c0.6,0.1,1.3-0.2,1.8-0.4c0.2-0.1,0.5-0.5,0.5-0.7c0-0.3-0.2-0.8-0.4-0.8c-3.8-0.3-7.7-0.9-11.5-0.7
			c-3.5,0.2-7.1,2.4-10,1.9c-3.2-0.6-5.1-6.6-8.8-1.2c-1.9-0.2-3.9-0.1-5.6-0.7c-1.2-0.4-2-1.5-3.4-0.5c-0.2,0.3-0.4,0.5-0.6,0.8
			c-1,1.7-1.5,3.8-4.2,1.4c-0.9-0.8-1.9,0.8-2.1,2.1c1.5,0.2,3.1,0.6,4.6,0.6c5.1-0.1,9.4,1.8,12.9,5.4c0.4-1.5,0.5-3.1,1.1-4.5
			c0.6-1.3,3-1.5,4.2-0.7c1.2,0.9,1.4,2,0.7,3.3c-0.1,0.3-0.4,0.5-0.5,0.8c-0.4,0.8-0.9,1.6-1.5,2.6c-1.2-0.4-2.4-0.7-3.6-1.1
			c-0.2,0.3-0.4,0.8-0.5,0.8c-4-0.6-7.3,2.2-11.1,2.3c-3.9,0.1-7.8,0.5-12.8,0.9c-0.1-0.9-0.3-2.1-0.6-3.6c-3-0.3-5.9-0.9-8.8-1
			c-2.3-0.1-4.5,0.5-5.7,3c-1.1,2.3-3.8,2.4-5,1.3c-3.7-3.5-7.7-2.9-12-2.2c-1.9,0.3-3.9-0.1-5.8-0.3c-0.4-0.1-0.7-0.8-1.1-1.3
			c1.5-2.2,3.9-2.2,6.1-2.4c5.5-0.6,11.1-0.9,16.6-1.3c2.5-0.2,5-0.2,7.2-1.6c-4.8-1.8-9.5-3.6-14.3-5.3c0.4-0.7,0.8-1.4,1.3-2.1
			c4.1,0.9,8.1,0.5,12.1-0.1c0.8-0.1,1.5-1.6,2.2-2.5c-2.7-1.6-5.8-3-4.8-7.4c5.7-0.9,11.4-1.7,17.3-2.6c0.5,0.8,1.3,1.8,2.1,3.1
			c0.7-0.5,1.4-1.3,2.2-1.5c6.1-1.9,12.5-2.9,18.9-3.2c3.2-0.2,6.5,0.2,9.7,0c2.6-0.1,5.5-0.1,7.6-1.2c3.1-1.7,5.9,1.2,8.6-0.3
			c0.7-0.4,1.4-1.5,1.4-2.2c0-0.7-1-2-1.6-2c-3.6-0.2-7.2-0.3-10.8-0.1c-6.8,0.4-13.6,1.5-20.4,1.2c-6.8-0.2-13.6,2.6-20.3-0.4
			c-0.8-0.3-2,0-2.9,0.3c-2.8,1-5.6,0.9-8.6,0.6c-3.1-0.2-6.2,1.1-9.6,0.7c-4.8-0.5-9.8-0.2-14.7,0.3c-4.2,0.4-8.3,2.5-12.4,2.3
			c-4.5-0.2-9-1.3-13.6-1c-6.9,0.5-13.8,0.8-20.6,1.5c-10.7,1.2-21.6,0.6-32,4.2c-2.1,0.7-4.5,0.4-6.8,0.5c-2.6,0.2-5.1-0.4-7.6,1.2
			c-0.9,0.6-2.6,0.4-3.8,0.1c-6.6-2-12.9,0.1-19.4,0.7c-3.9,3.2-8.7,2.2-13.1,2.9c-1.6,0.3-3.3,0.3-4.8,1c-1,0.5-1.8,1.8-2.2,2.9
			c-0.2,0.7,0.6,1.6,1,2.7c1.5-0.3,2.7-0.6,4-0.8c4.5-0.7,9.1-2.3,13.5-1.8c5.6,0.6,11.1-2.1,16.6,0c0.5,0.2,1.3-0.1,1.9-0.3
			c2.4-1,4.7-3,7.1-3.1c2.8-0.1,5.5,0.6,8.5,0.1c5.4-0.8,10.9-2.3,16.5-0.4c1.1,0.4,2.6,0.1,3.8-0.2c1.9-0.4,3.8-1.2,5.7-1.7
			c2.2-0.6,3.8,0.6,5,2.2c1,1.4,0.2,3.7-1.4,3.8c-1.3,0.1-3-0.6-3.8,0c-2.7,2-5.5,1.6-8.4,1.1c-4.1-0.6-8.4-2.2-11.8,1.9
			c-0.4,0.5-1.8,0.3-2.7,0.2c-3.2-0.1-6.5-0.5-9.7-0.2c-2.9,0.3-5.7,1.3-6.2,4.8c4.5,0.1,9.1,0.9,13.5,0.2
			c5.1-0.8,10.1-0.8,15.2-0.6c-1.7,2-3.5,3.9-3.5,6.8c-3.7-0.8-7.4-1.6-10.8-3.5c-1.5-0.9-3.2-0.2-4.4,1.2c-0.6,0.7-1.3,1.5-2,2.4
			c-1.5-0.3-3.3-0.3-4.7-0.9c-3.9-1.9-7.8-1.1-11.4,0.2c-2,0.7-3.6,2.8-6,1.1c-2,1-4,2.1-6.2,2.8c-1.1,0.4-2.5-0.1-3.7-0.2
			c-2.9-0.2-2.9-0.2-5.6,3.8c2.9,0.8,6.6-1.9,8.9,1.9c-1.7,3.5-4.1,6.1-8,6.7c-1.2,0.2-3.1,0.2-3.5-0.4c-1.4-2-3.1-1.9-5.1-2
			c-2.6,0-5.2-0.5-7.7-0.9c-0.5-0.1-1-0.7-1.4-1c0.9-3.8,5.4-1.6,7.3-4.6c-1-0.2-2-0.8-2.6-0.5c-1.6,0.9-3.1,0.9-4.6-0.1
			c-1.3-1-2.6-2-3.9-3c-3.8,2.1-8.5,2.4-11.8,5.7c-0.7,0.7-2.9,0.9-3.6,0.3c-2.6-2.4-5.2-1.8-8.2-1.2c-6,1.3-11.8,3.8-18.2,3.3
			c-0.5,0-1,0.7-1.5,1.1c-0.6,1.7-0.6,3.2,1.4,4.2c7.5-1.3,15.2-2.7,22.9-4c1.3-0.2,2.6,0,3,1.7c-0.3,1.9-2.1,2.2-3.3,3.3
			c-1.4,1.2-2.7,2.7-3.8,3.8c-2.6,0.1-4.7-2.4-6.7,0.2c-3.1-0.2-6.1-0.4-9.2-0.6c-2.2-3.2-5.3-1.3-8.1-1.3c-1.1-1.6-1.8-4.1-3.1-4.5
			c-5.2-1.8-10.6-3.2-16.2-0.7c-3.8,1.7-7.9,2.7-12.2,2c-1.2-0.2-2.9,0.1-3.7,0.9c-2.1,2.1-4.2,1.9-7,1.5c-3.4-0.5-7.1,0-10.1,2.8
			c-0.8,0.7-3.1,0.2-4.6-0.4c-1.8-0.7-1.6-2.5-1.4-4.1c-2.2-1.3-4.3-2.8-6.6-3.8c-2.5-1.1-5.1-0.5-7.1,1.4c-0.9,0.9-1.5,2.1-2.5,2.9
			c-1.5,1.2-3,0.9-4.2-0.7c-0.4-0.5-0.9-0.9-1.4-1.3c-4.5,3.6-9.3,5.6-15.2,3.2c-1.6-0.7-3.8-0.2-5.7,0c-6.5,0.8-12.9,1.8-19.4,2.7
			c-0.8,0.1-1.6-0.5-2.4-0.8c0.4-2,1.4-2.8,2.8-2.9c3.3-0.2,6.5-0.1,9.7-1.3c5.2-1.9,10.8-2,16.3-2.6c2.6-0.3,5.1-0.5,7.7-1.3
			c6.5-2,13.5-1.8,19.6-5.3c9.1-0.2,17.6-3.9,26.8-4c5.7-0.1,11.8-0.7,16.2-5.1c8,2.2,15.2,1.6,21.8-2.9c0.9-0.6,2.5-0.3,3.7-0.5
			c6.5-0.5,13-1,19.4-1.7c1.4-0.2,3.1-1.2,4-2.4c1.1-1.4,1.7-3.2,2.4-4.9c-4.6,1.7-9.4,1.7-14.3,2.1c-14,1-27.6,5-41.5,6.8
			c-0.6,0.1-1.2,0.4-1.8,0.7c-5.1,2.4-10.6,3-16.1,2.9c-4,0-7.8,0.5-11.6,1.4c-8.8,2.1-17.6,3.9-26.7,4.2c-2.9,0.1-6.1,0.3-8.7,1.4
			c-8.9,4-18.5,3.8-27.7,5.5c-9,1.6-18,2.7-27,4.3c-8.4,1.5-16.7,3.3-25,4.8c-2.6,0.5-5.2,0.5-7.8,0.4c-0.8,0-1.6-0.7-2.4-1.1
			c0.3-0.6,0.6-1.2,0.9-1.8c-2.3-2.2-2.4-3-0.3-3.9c1.5-0.7,3.5-0.5,4.4-2.3c1.8,0.7,3.6,1.3,5.4,2c-0.2,0.6-0.5,1.2-0.7,1.8
			c-2.3,0.5-4.7,1.1-7,1.6c2.7,0.8,4.8-0.5,7.1-1.6c1.5,0.2,3.1,0.6,4.5-0.5c1.6,0.5,3.2,0.9,4.6-0.6c-1.4,0.2-2.9,0.3-4.3,0.5
			c0,0,0,0,0,0c-1.2-0.4-2.5-0.9-3.7-1.3c1.9-1.4,3.8-2.8,5.7-4.2c-4.1-1-7.9-0.6-11.3,2c-1.9-0.2-3.9-0.7-5.7-0.4
			c-6.1,1.1-12.2,2.7-18.3,3.7c-19.4,3.1-38.8,6.5-58.2,9.2c-6.2,0.8-12.3,1.8-18.5,2.6c-9.8,1.2-19.6,2-29.3,3.6
			c-11.7,1.9-23.5,2.3-35.3,2c-10.2-0.3-20.3,0.7-30.4,0.2c-0.5,0-1.1,0.6-1.9,1.2c-0.1,2.1-0.2,4.4-0.2,6.6c0.8-0.8,1.9-1,2.2,0
			c0.4,1.2-0.9,1.1-1.8,1.1c0.1,3.5,3.3,5.6,4,8.6c0.7,3.1,0.1,6.4,0.2,9.6c0,0.8,1.1,1.5,1.6,2.2c0.4,0.5,1,1.4,0.9,1.6
			c-2,2.9-0.6,4.7,1.6,6.6c2.1,1.9,2.5,4.3,1.3,7.1c-1.1,2.5-0.6,5.1,0.6,7.5c1,2,2.1,4,3,6.1c0.5,1.1,1.2,2.6,0.8,3.6
			c-1.3,3.3-0.6,6.6,0.5,9.5c2,5.4-0.3,8.6-4.6,11.1c-0.1-0.1-0.1-0.1-0.2-0.2c0.1,0,0.2,0,0.4,0c0.4-1.2,0.7-2.4,1.1-3.6
			c-0.7-0.3-1.3-0.9-1.8-0.8c-3.8,0.6-7.6,1.3-11.4,2c0.3,0,0.7,0,1,0.1c-0.3,0-0.5,0-0.8,0c-8.8-0.3-17.1,2.3-25.5,4.3
			c-3.2,0.8-6.8,0.7-9.5,3.1c1.4,0.1,2.8,0.3,4.2,0.4c2.6,0,5.2,0,7.4,1.8c-2.4,1.9-6.5,3.5-9.4,3.6c-3.1,0.1-5.6-1.4-7.9-3.3
			c-3,2.2-5.6,5.2-10.1,4c-1.1-0.3-2.5,0.5-3.7,0.8c-4.4,1.1-8.8,2.3-13.7,3.5c-1,1.2-0.2,4.3-3.1,5.1c-0.9,0.3-2.8-0.3-2.2,2
			c1,0.2,1.9,0.4,2.8,0.5c1.3,0.2,2.8,0.5,2.9,2c0.1,1.6-1.4,1.9-2.6,2.1c-2.2,0.3-4.5,0.4-6.7,0.8c-0.7,0.1-1.1,1.2-1.7,1.8
			c1.5,1.7,3.2,1.1,4.8,1.1c2.3,0,4.5-0.1,6.8-0.1c1.1,0,1.2,1.1,0.3,2.8c-0.3,0.5-0.4,1.1-0.8,2.1c5.1,1.7,10.2,0.9,15.3,0
			c7.3-1.2,14.6-3,22.1-0.8c0,0,0,0.1,0,0.1c0,0,0.1,0,0.1-0.1l-0.1,0c0.6-1.4,1.8-1.9,3.1-1.8c3.6,0.3,7.1-0.4,10.6-1.1
			c4.7-1,9.5-1.1,14.3-1.6c0.8,3,1.6,5.7,4.8,6.8c1.1,0.4,0.8,2.7-0.4,3.1c-1.8,0.6-3.7,1-5.6,1.2c-1.6,0.2-3.6-0.6-4.8,0.1
			c-6.3,3.5-13.1,3.3-19.9,3.8c-3.5,0.3-7,1.3-10.5,2.2c-1.6,0.4-2.4,2-1.8,3.9c0.2,0.8,0.9,1.5,1.4,2.2c0,1.8-0.1,3.7-0.1,5.5
			c4.6,0.9,9,0.5,13.5-0.4c3.7-0.7,5.2,0.4,7.8,4.5c-5.8,1.4-11.4,2.7-17.1,4.1c-2.2,0.5-3.2,2-3.4,4.2c-0.2,2.4,0.2,3,3,4.3
			c1,0.5,2.9,0.1,2.1,2.2c-6.1,3.2-13.5,1.5-19.5,5c0.8,2.3,2.4,2.8,4,2.7c2.7-0.1,1.3,2.5,2.6,3.5c4.6-0.9,9.4-1.8,14.2-2.6
			c0.9-0.2,2,0,2.9,0.3c0.5,0.2,0.9,0.8,1.2,1.4c0.1,0.2-0.1,0.7-0.3,0.9c-0.9,0.8-1.8,2-3,2.3c-3.4,1-7,1.5-10.4,2.5
			c-1.1,0.3-2.1,1.5-3.1,2.2c-0.2,0-0.3-0.1-0.5-0.1c0.1,0.1,0.2,0.1,0.3,0.2c1.9-0.3,3.8-0.7,5.7-0.8c1.3-0.1,2.6,1.5,2,2.6
			c-1.7,3.3-0.6,5.6,2.2,7.6c0.4,0.3,0.5,1,0.8,1.9c-2.9,1.2-5.9,2.5-8.7,3.7c1.6,6.2,1.6,6.2,6.1,5.6c1.3-0.2,2.5-0.3,3.7-0.5
			c2.7,2.8,5.3,5.3,7.8,7.9c0.4,0.4,0.5,1.1,0.9,2c-1,0.7-1.9,1.5-3,2.1c-1.1,0.7-2.5,1.4-2.2,2.9c0.5,2.4-1,3.4-2.3,5
			c-1.5,2-4.8,2.6-4.8,6.6c3,0.8,4.9,4.6,9.2,3.7c0.8-0.2,2.5,1.2,2.9,2.2c1.2,3.4,2,6.9,2.9,10.5c-1.7,0.4-3.2,0.7-4.6,1
			c-1.6,3.5-1.5,6.4,2.2,8.4c0.1,0.6,0.4,1.3,0.2,1.9c-0.8,4.3-0.7,8.4,2.2,12.1c1.1,1.4,0.2,3.2-0.9,4.5c-0.8,0.9-1.6,1.8-2.6,2.8
			c4,3.3,6.4,7,7.9,11.8c-4,2.9-7.6,5.9-13,6.2c-3.8,0.2-7.6,1.6-11.4,2.7c-0.6,0.2-1,1.4-1.2,2.3c-0.1,0.3,0.9,1.1,1.4,1.1
			c2.6-0.2,5.2-0.6,7.8-1c5.4-0.8,10.5-3.4,16.2-3.3c0.3,0,0.6-1.1,1.2-2c4.5,2.5,9.2,2.4,14.1,1.1c2.2-0.6,4.6-0.4,6.9-0.5
			c14.7-1.1,29.5-2.1,44.2-3.2c1.6-0.1,3.2-0.6,4.8-0.9c-0.3,1.7-1,3.2-2.8,3.6c-2.6,0.6-5.2,0.9-7.8,1.4c-3.8,0.8-7.7,1.5-11.5,2.5
			c-0.8,0.2-1.6,1.1-2,1.9c-0.9,1.7,1,4,3.1,3.7c15.3-2.3,30.5-4.6,45.8-6.9c4.9-0.7,9.9-1.1,14.5-2.6c6.4-2.1,12.7-2.9,19.3-2.8
			c5.9,0.1,11.8-0.4,17.3-3.1c2.2-1.1,4.4-0.9,6.7-0.9c7.9,0.2,15.7-1,23.1-3.7c2.3-0.8,4.4-0.9,6.7-0.8c5.8,0.3,11.9,0.4,17.4-1.7
			c3.6-1.4,6.9-1.6,10.5-1.7c3.9-0.1,7.9,0,11.8-0.4c10.4-1.3,20.8-2.8,31.2-4.2c23.1-3,46.1-6.7,69.3-9.5c14.7-1.7,29.4-3.7,43.9-6
			c7-1.1,13.8-2.7,21.1-2.6c7.5,0.1,14.9-1.8,22.4-2.8c10.4-1.3,20.8-2.8,31.3-3.9c18-1.8,35.9-4,54-4.6c13.1-0.4,26.2-1.3,39.4-2
			c2-0.1,4,0.1,5.9-0.4c5.8-1.8,11.7-1.4,17.6-1.4c3.3,0,6.6-0.2,9.8-0.4c1.9-0.1,3.7-0.8,4.9-2.4c-2.5-1.1-5-2.3-7.5-3.4
			c0.5-2,1.8-2.3,3.1-2.4c9.1-0.6,18.3-1,27.4-1.8c10.1-0.8,20.3-0.6,30.4-0.9c8.2-0.2,16.4-0.6,24.6-0.8
			c16.4-0.4,32.8-0.7,49.2-0.9c5.9-0.1,11.8,0,17.7-0.2c4.6-0.1,9.3,0.2,13.6-1c5.1-1.4,9.7,1.3,14.6,0.7c3.2-0.4,6.6,0,9.8-0.1
			c2.3-0.1,4.3-0.5,6-2.5c1.8-2.1,5.5-2.2,7.2-0.7c3.2,2.8,6.6,1.8,10.1,2.1c6.1,0.5,12.1-1.1,18.2-0.2c1.9,0.3,3.9-0.8,3.4-4
			c-3.1-0.3-6.3-0.6-9.5-1c-1.8-0.2-3.9,1.1-5.3-1.2c-0.7-1.2,1.6-2.1,5.5-2.4c2.6-0.2,5.2-0.6,7.8-0.5c1.9,0,3.9,0.5,5.7,0.9
			c1.7,0.4,1.9,1.6,1.1,4.5c1.8,1.1,3.7,2.3,5.6,3.4c0.8,0.5,1.8,1.1,2.7,1c4.5-0.2,9.2,0.8,13.4-2c1.8-1.2,4.2-1.7,6.3-2.5
			c-5.4-1.8-5.4-1.8-6.3-4c3.1,0.2,5.9,0.5,8.8,0.6c0.9,0,2.2,0.2,2.8-0.3c4.8-4,10.5-3.1,16-3.4c5.9-0.3,11.9,0.3,17.6-0.7
			c6.2-1,12.3-1.9,18.5-1.8c3.3,0.1,4.2-2.3,5.2-4.8c-1.7-1.7-3.5-3.4-4.8-4.7c-7.6,0.5-14.5,1-21.3,1.4c-1.1-2.6-2-4.8-2.8-6.6
			c1.4-1.7,2.9-3,3.8-4.7c0.9-1.7,2.2-2.5,3.9-2.2c4,0.7,4.6-2.6,6.4-5.3c1.3,0,3,0,4.6,0c4.2,0,7.8-1,9.1-5.7
			c0.2-0.8,1.4-1.3,2.1-1.9c2.2-2.2,2.2-2.2-0.2-5.5c-1.8,0.2-3.8,0.4-5.7,0.5c-1.9,0.1-3.8,0-6.9,0c2.7-2.4,4.5-4,6.4-5.6
			c0.2-0.2,0.6-0.4,0.9-0.4c2,0,3.9,0.2,5.9,0.1c0.9,0,1.8-0.5,2.6-0.7c0.3-6.3,0.3-6.4-3.8-7.7c0.9-1.8,2.4-2.7,4.2-3.4
			c0.4-0.2,0.6-1,0.7-1.3c-0.5-1.7-1-3.2-1.3-4.4c-3.3-0.6-5.9-0.8-8.3-1.5c-2.7-0.7-5.2-1.8-8.3-3c3.7-2.6,6.4-5.6,10.7-5.2
			c0,0.1,0,0.2,0,0.3c0,0,0.1,0,0.1,0c1.2-1.1,3.3-2.5,1.9-3.9c-2.3-2.3-1.2-4.9-1.7-7.4c-0.9-0.1-2-0.4-2.8-0.2
			c-2.5,0.7-4.9,1.7-7.4,2.6c-4.1,1.5-8.1,1.7-12.1,0c0.2-4.8,0.7-5.8,3.6-6.2c4.5-0.7,9.1-1.2,13.5-1.7c1.4-1.8,2.5-3.4,3.8-4.9
			c1.2-1.4,2.7-2.7,4.1-4.1c-0.5-1.2-0.7-2.2-1.3-2.9c-1.6-1.7-1.3-3.6-0.7-5.5C968.4,179.3,969.8,178.2,969.8,175.8z M821.4,84.9
			c0.4,0.1,0.8,0.4,1.1,0.7c-0.4,0.2-0.8,0.5-1.3,0.7c-0.2,0.1-0.5-0.2-0.7-0.4C820.8,85.6,821.1,84.9,821.4,84.9z M26.4,177.2
			c-0.2-0.1-0.3-0.4-0.4-0.6c0.3,0,0.6-0.2,0.8-0.1c0.2,0.1,0.3,0.4,0.4,0.6C26.9,177.1,26.6,177.3,26.4,177.2z M61.9,215.3
			c-4-0.7-8.2-1.4-12.5-2.1c0.7-0.5,1.3-1.1,2.1-1.3c6.4-1.6,12.9-3.1,19.9-3.4C69.5,211.8,69.5,211.8,61.9,215.3z M74,218.6
			c-0.1,0.2-0.4,0.4-0.7,0.4c-0.1,0-0.3-0.3-0.5-0.5c0.4-0.2,0.9-0.4,1.3-0.6C74.1,218.1,74.1,218.4,74,218.6z M98.6,196.5
			c-1.8-1.8,1.2-2.8,0.8-4.2c-0.8-2.4,0.8-2.8,2.4-3c1.6-0.2,3.3-0.3,4.6,1.3C105.5,194.7,103.7,197.6,98.6,196.5z M146.3,366
			c-1.5-0.6-2.9-1.5-4.3-2.2c1.5,0.1,3.1,0.4,4.6,0.2c1.8-0.3,3.5-0.5,5.2,0.2C150.6,366.3,148.7,366.9,146.3,366z M159.6,361.9
			c-3,3.5-3.1,3.6-7.2,2.1C154.5,362.3,157.2,362.5,159.6,361.9c0.1,0,0.1,0,0.2,0C159.7,361.9,159.6,361.9,159.6,361.9z
			 M166.1,363.3c3.7-3.4,3.8-3.4,8.7-0.2C171.9,363.2,169,363.3,166.1,363.3z M186.8,360.1c-0.8,0.5-1.7,0.7-2.7,0.9
			c-3.1,0.7-6.2,1.4-9.3,2.1c1.4-1.8,2.6-3.7,4.2-5.2c2-1.9,5.4-1.6,7.9,0.6C187.2,358.7,187.1,359.9,186.8,360.1z M215.7,70.9
			c0.3,0,0.6,0,0.9,0.1c0.1,0,0,0.5,0,0.8c-0.3,0-0.6,0-0.9-0.1C215.6,71.6,215.7,71.2,215.7,70.9z M208.1,358
			c-1.6,1.8-3.5,2.6-5.9,1.7c-0.4-0.2-0.7-0.9-1-1.4c-0.1-0.2,0.1-0.8,0.3-0.8c1.8-0.6,3.5-1.2,5.4-1.5c0.3-0.1,0.9,0.7,1.3,1.2
			C208.3,357.3,208.2,357.7,208.1,358z M228.3,71.5c0.1,0,0.1-0.1,0.2-0.1c0.6-2.3,1.8-4.1,4.5-4c0.5,0,1.1,0.7,1.3,1.1
			c0.1,0.4-0.2,1.4-0.5,1.5C232,70.7,230.2,71.1,228.3,71.5C228.3,71.6,228.3,71.5,228.3,71.5z M222.5,355.9c-0.2,0-0.5-0.5-0.6-0.7
			c-0.1-0.2,0-0.7,0.2-0.8c3.3-1.8,6.7-3.8,10.7-3.5c1.1,0.1,2,1.3,4.4,3C231.3,355.8,227,356.6,222.5,355.9z M241.5,68.8
			c0.2-2.8,1.9-3.3,3.4-3.5c3.1-0.4,6.3-0.4,9.6-0.6C250.3,67.5,250.3,67.5,241.5,68.8z M262.2,62.2c3.1-0.6,6.3-1,11.2-1.7
			c-2,2.7-3.5,4-3.6,5.3c-0.2,4.1-3.4,3-5.7,4.6c-1.4-2.7-2.5-4.8-3.6-6.9C261.2,62.9,261.7,62.2,262.2,62.2z M261.4,348.5
			c-7.7,3.3-8.7,3.5-9.8,2.6c-0.2-0.2-0.4-0.7-0.3-0.9c2.3-4,6.5-1.5,9.6-2.8c0.5-0.2,1.1-0.1,1.6,0
			C262.2,347.9,261.9,348.3,261.4,348.5z M268.1,348.9c-0.8,0.2-1.8,0.7-2.4,0.4c-1-0.4-1.8-1.2-2.7-1.9c1.1-0.4,2.2-1,3.3-1
			c0.6,0,1.3,1,1.9,1.6C268.4,348.2,268.3,348.8,268.1,348.9z M278.2,67.1c-0.7,0.4-2.4,0.5-2.6,0.1c-1.1-1.8,0.5-2,1.7-2.2
			c1.4-0.1,2.7-0.2,4.1-0.3C280.4,65.6,279.3,66.5,278.2,67.1z M286.2,342.7c-1.4,4.4-2.9,5.9-6.3,5.5c-1.9-0.2-3.7-0.8-5.5-1.2
			c-0.8-2.4,0.9-3.2,2.3-3.5C279.8,343,283,342.9,286.2,342.7c1.8,0.4,3.6,0.7,5.4,1.1C289.5,345.1,288,343.3,286.2,342.7z
			 M292.1,343.7c1.1-1.7,2.5-1.3,4-0.5C294.9,344.8,293.5,344.5,292.1,343.7z M296.4,343.1c1.2-1.5,2.6-1,4-0.5
			C299.2,343.8,297.8,343.8,296.4,343.1z M312.8,341.4c-4,0.9-7.9,3-12.1,1.2c0.5-2.2,2.3-3,4.2-3c2.8-0.1,5.7,0.2,8.6,0.4
			C313.2,340.5,313.1,341.3,312.8,341.4z M402.5,66c-3.3,0.6-5.5,1-7.9,1.4C396.4,65.1,397.3,64.9,402.5,66z M365.2,335.1
			c-5.7,1.1-11.4,2.6-17.2,2.8c-6.5,0.2-12.8,2-19.3,1.6c-0.3,0-0.6-0.2-1.5-0.4c0.8-0.7,1.3-1.6,1.9-1.7c4.6-1.2,9-4,14.1-2.2
			c0.7,0.3,1.8-0.5,2.7-0.7c2.5-0.6,5-1.5,7.6-1.6c2.3-0.1,4.5,0.2,6.7-0.6c2.2-0.7,4.4-0.3,6.4,0.9
			C366.2,333.8,365.8,334.9,365.2,335.1z M375.8,332.2c-2.8,4.2-3,4.3-6.5,2.2c-0.8-0.4-1.5-0.9-2.3-1.4
			C369.8,331.5,372.6,330.4,375.8,332.2c2-2.9,2.2-2.9,4.4,0.3C378.7,332.4,377.2,332.3,375.8,332.2z M402.2,330.1
			c-4-0.1-7.8,0.9-11.4,2.3c-3.5,1.3-6.9,1.4-10.4,0.1c0.2-2.7,2.2-3.8,4.3-4.3c6-1.4,12-1.2,18-0.1c0.2,0,0.4,0.5,0.6,0.8
			C402.9,329.3,402.5,330.1,402.2,330.1z M413.4,327.2c-0.5,0.4-0.9,1-1.4,1.1c-0.8,0.1-1.6-0.1-2.4-0.3c-0.1,0-0.2-0.6-0.1-0.8
			c0.3-1.5,1.4-2,2.8-1.8c0.5,0.1,1,0.6,1.4,1C413.7,326.5,413.5,327,413.4,327.2z M426.7,327.9c-1.7,0.7-3.7,1-5.2-0.6
			c-0.2-0.3-0.1-1.3,0.2-1.6c1.8-1.5,3.9-1.8,6.7-0.7C427.9,326,427.5,327.5,426.7,327.9z M456.3,64.5c0,0.3,0.1,0.6,0.1,0.9
			c-0.5,0.2-1,0.4-1.5,0.6c0-0.3-0.2-0.8-0.1-0.9C455.3,64.8,455.8,64.7,456.3,64.5z M448.6,324.4c-2.8,0.5-5.8,0.7-8.7,1
			c-1.4,0.1-3-1.3-2.5-2.2c0.6-1,1.8-2.7,2.5-2.6c6.5,1,12.9-0.5,19.4-0.9c0.7,0,1.5,0.5,3.8,1.4C457.3,322.4,453,323.5,448.6,324.4
			z M469.4,320.8c-0.5-0.1-1.1-0.8-1.1-1.2c-0.2-1.3,1.6-2.3,3.4-2c0.4,0.4,1,0.8,1.1,1.3C472.9,320.2,471.2,321.3,469.4,320.8z
			 M491.1,319.7c0,0.2-0.5,0.2-0.8,0.3c0-0.5,0-1.1,0.1-1.6c0-0.1,0.5-0.2,0.8-0.3C491.2,318.7,491.2,319.2,491.1,319.7z
			 M545.9,68.5c1.2-1.9,2.4-3.7,3.8-5.9C550.8,68.4,550,69.6,545.9,68.5z M547.6,58c-0.8,1.6-2.5,1.7-4.4,0.7c0.7-2,1.4-3.7,2.1-5.9
			c4.4-2,9.1-2.8,13.7,0c-2.4,0.6-4.8,1.4-7.2,1.9C549.8,55,548.6,56,547.6,58z M553.9,63.4l0.6-0.4l0,0.8L553.9,63.4z M559.4,62.7
			c-0.1,0.1-0.5,0-0.8,0c0-0.3,0-0.6,0-0.9c0.3,0,0.7-0.1,0.8,0.1C559.5,62,559.5,62.4,559.4,62.7z M560.9,52.2
			c-0.4,0.2-0.9,0.3-1.4,0.5c0-0.7,0.1-1.4,1.2-1.2C560.9,51.5,561,52.1,560.9,52.2z M562.5,69.6C562.5,69.6,562.5,69.6,562.5,69.6
			c0.1-0.9,0.2-1.8,0.4-2.7c0.1-0.3,0.4-0.5,0.6-0.7c0.2,0.4,0.6,0.9,0.5,1.1C563.6,68.2,563,68.9,562.5,69.6z M664.8,34
			c1.4-1.1,2.8-1,4.3-0.2C667.7,35.2,666.2,34.7,664.8,34z M665.3,22c0.9-0.3,2-0.4,2.9-0.2c2.8,0.6,5.5,1.3,8.9,2.1
			c-0.4,1.2-0.5,2.6-1.3,3.3c-1.5,1.6-3.4,2.9-5.1,4.3c0,0,0,0,0,0c1-2.2,0.1-3.9-1.8-4.8c-1.4-0.7-3.1-0.8-4.6-1.4
			c-0.5-0.2-1.1-1.3-0.9-1.5C663.8,23,664.5,22.3,665.3,22z M659,28.1c0.3-0.2,0.9,0.2,1.4,0.3c-0.3,0.5-0.5,1.2-0.9,1.3
			c-0.4,0.1-0.9-0.1-1.4-0.3C658.3,28.9,658.6,28.4,659,28.1z M659.2,33.4c1.7-0.1,3.5,0.4,5.2,0.7c-0.5,0.7-0.9,1.5-1.5,2.1
			c-4.4,4.2-5.7,4.3-10.6,0.6c-0.7-0.5-1.5-1-2.2-1.5c1-1.1,2-2.2,3-3.3C655,33.2,657,33.4,659.2,33.4z M615.8,25.6
			c2.1-0.8,4.4-1.5,6.6-1.6c5.8-0.2,11.6,0.2,17.4,0.1c3.2-0.1,6.4-0.9,9.6-1.3c2.2-0.2,4.4-0.3,6.1-0.4c2.1,1.8,0.8,3.5,1.1,5
			c0.1,0.7,0.7,1.3,1.2,1.9c-1.5,0.8-2.9,1.6-4.4,2.5c-1.2-0.5-2.3-1.3-3.5-1.5c-7.4-1.2-14.7-2.2-21.8-3.3
			c-1.9,0.5-1.5,2.1-2.2,3.1c-0.5,0.7-1.4,1.7-2.2,1.6c-2.6,0-5.1-0.3-7.6-0.8c-0.7-0.1-1.4-1.3-1.7-2.2
			C613.7,27.3,614.5,26,615.8,25.6z M649.7,35.3c-0.5,0.2-1,0.5-1.5,0.6c-0.2,0.1-0.5-0.2-0.8-0.3c0.3-0.3,0.7-0.9,1-0.9
			C648.8,34.7,649.3,35,649.7,35.3z M595.6,38.4c-1.3,2.2-1.7,2.3-4,0.2C592.9,37.7,594.2,37.8,595.6,38.4z M575.6,69.1
			c-0.2-0.5-0.5-1-0.5-1.6c0-0.2,0.6-0.6,0.7-0.6c0.4,0.2,0.8,0.6,1.1,1C576.4,68.3,576,68.7,575.6,69.1z M584.7,67.5
			c-1.4-4-1.4-4,4.5-7.5c2.4,0.4,3.9,2.1,5.2,4c-0.2-0.2-0.5-0.4-0.7-0.6c0.2,0.2,0.4,0.5,0.6,0.7c0.2,0.4,0.3,0.9,0.5,1.3
			C591.4,66.1,588.1,66.8,584.7,67.5z M595.9,49.6c-2.5,0.6-5.1,1-7.6,1.5c-0.3,0.8-0.7,1.6-1,2.4c-0.1,0.3-0.1,0.6-0.2,0.9
			c0-0.3-0.2-0.7-0.1-1c0.3-0.8,0.8-1.5,1.2-2.3c-3.5,0.3-7.4-0.2-9.3,4c-0.2,0.5-1,0.8-1.6,1c-1.6,0.4-3.2,0.6-5.1,0.9
			c-0.2-2.4-0.4-4.5-0.6-6.6c1.7-2.4,4.5-2.3,7-2.8c3.1-0.5,6.4,0.2,9.2-1.8c2.8,0.3,5.6,0.6,8.4,1c0.4,0.1,0.9,1,0.8,1.5
			C596.9,48.7,596.4,49.5,595.9,49.6z M596,71.4l0.2-0.5l0.4,0.4L596,71.4z M596,38.4c1.5-1.1,2.9-0.7,4.3,0
			C598.9,39.2,597.4,39,596,38.4z M608.2,62.6c-0.6,2.2-2.3,2.7-4.4,2.9c-0.1-2.8,1.6-3.6,3.5-4.2c0.2-0.1,0.6,0.2,0.8,0.4
			C608.2,61.9,608.3,62.3,608.2,62.6z M612.7,52.6c0-0.4-0.1-0.7-0.1-1.1c0.3,0.1,0.6,0,0.7,0.2c0.1,0.1,0.1,0.5,0.1,0.7
			C613.1,52.4,612.9,52.5,612.7,52.6z M613.5,57.8c0.1-0.2,0.1-0.5,0.2-0.7c0.2,0,0.6-0.1,0.7,0c0.2,0.1,0.2,0.4,0.2,0.7
			C614.3,57.9,613.9,57.9,613.5,57.8z M616.7,69.8c0.3,0,0.7-0.2,0.8,0c0.4,0.3,0.7,0.7,1.1,1C618,70.5,617.3,70.2,616.7,69.8z
			 M619,63.3c-0.6,0.3-1.2,0.4-1.8,0.6c-0.1,0-0.2-0.4-0.4-0.7c0.5-0.3,1.1-0.6,1.7-0.8c0.2-0.1,0.6,0.1,0.9,0.2
			C619.3,62.9,619.2,63.3,619,63.3z M619.1,70.6c0.2-0.5,0.4-1.1,0.6-1.6c0.1,0.2,0.3,0.5,0.3,0.6C619.8,70,619.5,70.3,619.1,70.6z
			 M619.4,309.5c-0.4-0.1-0.8-0.8-1.2-1.3c1-0.3,2.1-0.7,3.2-1c0.3,1,0.4,1.5,0.5,2C621.1,309.3,620.2,309.6,619.4,309.5z
			 M625.9,68.2c0.4-0.3,0.9-0.5,1.4-0.7c0.1,0.5,0.2,0.9,0.4,1.4c-0.6,0-1.1,0.1-1.7,0C626,69,625.8,68.3,625.9,68.2z M635.9,61.3
			c-0.5,1.2-2.1,1.4-3.3,0.6c-1.2-0.8-1.5-2.3-0.5-3.3c0.9-1,2-1.5,3.4-0.8C636.7,58.9,636.4,60.1,635.9,61.3z M634.3,48.4
			c0.4,2.4,0.1,3-1.6,2.9c-1.1-0.1-2.2-0.3-3.3-0.5c0.2-0.7,0.5-1.4,0.7-2.1c-0.3,0.2-0.7,0.3-0.7,0.5c-0.1,0.5-0.1,1-0.1,1.5
			c-0.1,0-0.1,0-0.2,0c-3,2.4-4.6,0.1-6.5-2.1c-4.5,0-9.3,0-14.9,0c1-1.4,1.3-2.4,1.9-2.6c3.4-0.9,6.9-1.6,10.4-2.4
			c1.3-0.3,2.6-0.3,3.8-0.6c0.4-0.1,0.7-0.9,1-1.4c0.1-0.2-0.1-0.7-0.3-0.8c-2.2-1.4-4.5-3.3-7.1-1.9c-2.2,1.2-3.7,1-6.1,0.2
			c-3.1-1-6.6-0.7-10-0.9c0.7-0.4,1.4-0.9,2.1-1c11.4-1.2,22.8-2.3,34.2-3.3c1.6-0.1,3.2,0.2,4.7,0.7c0.7,0.2,1.1,1.3,2.2,2.7
			c-2.5,0-4.5-0.6-6,0c-2.4,0.9-4.4,2.7-6.5,4c0.6,2.2,2,2.3,3.7,2c1.9-0.3,3.8-0.5,5.8-0.5c0.4,0,1.1,0.8,1.2,1.3
			c0.1,0.5-0.2,1.3-0.6,1.6c-0.4,0.4-1.2,0.5-1.8,0.7C638.1,47.2,636.2,47.8,634.3,48.4z M661,71c-0.5,0.4-1.1,0.9-1.6,1
			c-4.7,0.2-9.5,1-14.2-0.7l0.1-0.2l0,0l0,0c-0.8-0.3-1.6-0.6-2.4-0.8c0.7,0.3,1.4,0.6,2.1,0.9c-2.7,0.8-2.8,0.7-4.8-1.9
			c0.9,0.3,1.8,0.6,2.7,1c-1-0.5-2-0.9-3-1.4c1.2-0.4,2.6-1.2,3.7-1c5,1.1,9.4,0,13.8-2.2c1.6-0.8,4.4,2.4,4,4.4
			C661.4,70.4,661.2,70.8,661,71z M659.2,61c-1-1.7,0.7-3,1.5-4.3c0.5-0.8,1.3-1.3,2.1-2c2.9,0.9,5,2.7,6.8,4.7
			c-1.4,2.2-3.7,1-5.4,1.8C662.5,62.2,660.6,63.3,659.2,61z M761.6,295.2c-1.2-0.1-2.3-0.5-3.5-0.8c0.9-1.8,2.3-1.4,3.4-1.3
			c0.4,0,0.9,0.6,1.3,0.9C762.4,294.4,762,295.2,761.6,295.2z M805.7,294.9c-2.2,0-4.4-0.1-6.6-0.2c-0.2,0-0.6-0.5-0.6-0.6
			c0.1-0.5,0.3-1.2,0.7-1.4c2.1-1.1,4.3-0.9,6.4,0.1c0.4,0.2,0.4,1,0.7,1.5C806.1,294.5,805.9,294.9,805.7,294.9z M811.4,294.4
			c-0.2-0.3,0.1-1.4,0.3-1.5c0.8-0.2,1.7-0.2,2.6-0.1c0.2,0,0.2,0.9,0.3,1.4C813.7,295.3,812.2,295.5,811.4,294.4z M828.7,294.3
			c-1.8,0.1-3.5,0.2-5.3,0.3c-0.1,0-0.4-0.5-0.4-0.7c0-0.3,0.1-0.6,0.3-0.8c1.6-1.2,3.4-1.3,5.2-0.4c0.2,0.1,0.2,0.5,0.4,0.9
			C828.8,293.7,828.8,294.3,828.7,294.3z M847,131.2c-1.4,0.5-2.9,0.7-4.2,1c-0.6-0.8-1.1-1.2-1.3-1.7c-0.1-0.2,0.1-0.7,0.4-0.8
			c1.7-1.1,3.5-1.3,5.1,0C847.3,129.8,847.2,131.2,847,131.2z M846.9,294.4c-0.9,1.2-2.1,1.1-3.1,0.3c-0.4-0.3-0.5-0.9-0.7-1.3
			c0.5-1.3,3-1.8,3.9-0.7C847.2,293.1,847.1,294,846.9,294.4z M893.5,294.5c-1.6,1.3-3.5,1.3-5.1-0.2c-0.3-0.3-0.4-1.4-0.1-1.7
			c1.4-1.5,3.5-1.7,5.1-0.5c0.4,0.3,0.4,1.1,0.6,1.6C893.8,293.9,893.7,294.3,893.5,294.5z M938.4,168.9l-0.5,0.4l0-0.6L938.4,168.9
			z M924.7,167.2c0.1,0.2,0.1,0.5,0.2,0.7c-0.3,0.1-0.5,0.1-0.8,0.2c-0.2-0.2-0.3-0.3-0.5-0.5C924,167.5,924.4,167.3,924.7,167.2z
			 M921.1,206.2c1.1-0.5,2.5-0.5,3.8-0.7c0.1,0.4,0.3,0.9,0.4,1.3c-1,0.7-2,1.6-3.2,2.1c-0.4,0.2-1.6-0.3-1.6-0.4
			C920.6,207.8,920.6,206.5,921.1,206.2z M939.4,221.7c-1.1,1.5-2.7,1.7-4.4,1.4c-0.3-0.1-0.6-0.3-0.9-0.2c-1.6,0.2-3.2,0.5-4.8,0.6
			c-2.2,0.1-3.6-1-4.6-2.9c-0.7-1.4-2-2.4-4-4.8c7.8,0.4,13.9-1.6,19.9,0.4C941.5,218.4,940.6,220.1,939.4,221.7z M962.7,234.5
			c0.6-1.8,1.8-2.5,3.7-2.1c0.8,0.2,1.5,0.6,2.2,1c-1.5,0.4-2.6,1.3-3.4,2.8c-0.2,0.3-1.5,0.2-2.2,0
			C962.7,236.1,962.6,235,962.7,234.5z M954.7,215.6c0.1,0,0.1,0.6,0.2,0.9c-0.6,0-1.1,0.1-1.7,0c-0.1,0-0.2-0.6-0.3-0.9
			C953.6,215.6,954.2,215.6,954.7,215.6z M949.9,178.9c-0.1,0-0.5-1.4-0.5-1.4c0.7-0.4,1.5-0.6,2.4-0.8c0.1,0,0.3,0.9,0.6,1.8
			C951.5,178.6,950.7,178.9,949.9,178.9z M956.7,167.2c-0.1,0-0.2-0.5-0.3-0.7c0.5-0.1,1-0.2,1.6-0.2c0.1,0,0.2,0.5,0.2,0.8
			C957.7,167.2,957.2,167.3,956.7,167.2z"/>
		<path class="st0" d="M699.1,38.1c-0.1,0-0.1,0-0.2,0l0.1,0.3C699.1,38.3,699.1,38.2,699.1,38.1z"/>
		<path class="st0" d="M641.8,4.9C641.8,4.9,641.8,5,641.8,4.9c0.1,0,0.3,0,0.4,0c-0.1-0.1-0.3-0.1-0.4-0.1
			c-0.1,0.1-0.3,0.1-0.4,0.2C641.5,4.9,641.7,4.9,641.8,4.9C641.8,5,641.8,4.9,641.8,4.9z"/>
		<path class="st0" d="M584.3,9.5c-0.1-0.1-0.2-0.2-0.3-0.2c-0.1,0.1-0.3,0.1-0.4,0.1C583.8,9.4,584,9.5,584.3,9.5
			C584.2,9.5,584.3,9.5,584.3,9.5z"/>
		<path class="st0" d="M586.9,15.1c14.1-1,28.2-2.1,42.3-2.9c3.5-0.2,6.8-0.6,10.1-1.9c-0.7-0.4-1.4-0.7-1.9-1.2
			c-1.1-0.9-0.9-2.4,0.3-2.9c1.2-0.5,2.4-1,3.7-1.4c-1.4-0.3-2.9-0.9-4.3-0.8c-15.2,1-30.5,2-45.7,3.1c-2.5,0.2-5.2,0-7.1,2.2
			C586.2,10.8,586.7,12.9,586.9,15.1z M617.6,7.9c0.4-0.1,0.9,0.5,1.8,1c-0.9,0.5-1.6,1-2.3,1.2c-0.2,0.1-0.7-0.7-1-1.2
			C616.5,8.5,617,8,617.6,7.9z"/>
		<path class="st0" d="M110.5,372.5c-5.2,0.5-10.3,1.3-15.4,2c-10.3,1.3-20.5,3.7-30.9,4c-2.1,0.1-4.1,1.4-6.7,2.4
			c1.9,2.8,3.5,2.5,5.2,2.3c8.4-1.2,16.7-3.1,25.2-3.4c7.9-0.3,15.4-2.6,23.2-3.2c0.5,0,1.4-1.5,1.3-2.2
			C112.2,373.7,111.1,372.5,110.5,372.5z"/>
		<path class="st0" d="M307.5,57.7c5.8-0.7,11.7-1.1,17.5-2.1c5.4-0.9,5.4-1.1,10.2-4.9l-0.2,0.2l0,0l0,0c0.1,0,0.3,0.1,0.4,0.1
			c-0.1-0.1-0.1-0.2-0.2-0.3c1.8-1.4,3.7-2.7,5.5-4.1c-0.5-0.1-1-0.3-1.5-0.3c-10.6,0-20.8,2.6-31,5.1c-1.5,0.4-2.9,1.5-4.3,2.3
			c0.6-0.1,1.3-0.4,1.9-0.3C309,53.8,309.3,54.5,307.5,57.7z"/>
		<path class="st0" d="M341.2,46.8C341.2,46.8,341.2,46.8,341.2,46.8c0-0.1,0-0.2-0.1-0.3c-0.1,0.1-0.2,0.1-0.3,0.2
			C340.9,46.7,341,46.8,341.2,46.8L341.2,46.8z"/>
		<path class="st0" d="M537.4,325c-6.8,0.9-13.8,1.9-20.6,2.8c-2.6,3.8-2.6,3.8-5.8,2.3c-3-1.4-4.3-1-6.3,2.1
			c-0.5,0.7-0.9,1.5-1.4,2.2c3.8,1.4,7.5,0.9,11.2-0.5c3.2-1.3,6.5-2.5,9.8-3.8c0.9,2.1,1.9,3.4,3.8,2.5c1.5-0.6,2.7-1.8,4.2-2.5
			c1.7-0.7,3.7-0.8,5.3-1.6C538.7,327.9,539.3,326.3,537.4,325z"/>
		<path class="st0" d="M657,5.1c0,0,0.1,0,0.1,0.1c-0.1,0-0.2,0-0.2,0c-0.3,2.1-1.3,3.7-3.6,3.6c-2.9-0.1-5.9-0.5-8.6,0.9
			c7.1,1.4,14.2,0.8,21.4,0c2.6-0.3,4.2-1.6,6.2-2.7c-1,0.4-1.9,0.1-2.5-0.8c-0.3-0.5,0.4-1.6,0.6-2.4c0.2-0.5,0.4-1,0.6-1.5
			c-7.9,0.3-15.9,0.5-23.8,1c-1.7,0.1-3.4,0.8-5.1,1.4C647.1,6.8,652.1,5.7,657,5.1z"/>
		<path class="st0" d="M491.9,46.3c-1.5-0.3-3.1-0.4-4.6-0.7c-5.7-1.4-10.9-0.7-15.7,2.9c-1.2,0.9-3,1-4.5,1.3
			c-2.8,0.7-5.6,1.3-8.4,2c-0.4,0.1-0.6,1-0.7,1.5c-0.1,0.2,0.3,0.5,0.5,0.7c0.3,0.1,0.7,0.4,1,0.3c11-1.3,21.8-3.3,32.5-5.8
			c0.3-0.1,0.5-1,0.5-1.6C492.4,46.8,492.1,46.3,491.9,46.3z"/>
		<path class="st0" d="M548.8,42.1c0.6-0.1,1.2-1.3,1.4-2.1c0.1-0.4-0.7-1.3-1.2-1.4c-1.9-0.4-3.8-0.8-5.8-0.8
			c-6.7,0.2-12.9,3.7-19.8,3.1c-0.5,0-1.3,1.4-1.6,2.2c-0.1,0.4,0.5,1,0.7,1.5c2.9-0.2,5.8-0.2,8.7-0.5
			C537.2,43.6,543,42.9,548.8,42.1z"/>
		<path class="st0" d="M717,26.9c-2.8,0.9-5,0.2-7.2-1.5c-1.3-1-2.8-1.6-4.6-2.6c-1.1,1.4-2,2.7-3.1,3.7c-1.4,1.2-3,2.1-4.6,3.2
			c0.7,0.4,1.2,0.9,1.7,0.9c3.7-0.2,7.5-1.8,11.2-0.1c5-1.7,10.2-0.5,15.3-1.2c0.8-0.1,1.6-0.5,2.4-0.8
			C724.3,28.2,720.8,25.6,717,26.9z"/>
		<path class="st0" d="M517.4,33.1c1.4-0.5,1.8-1.9,1.5-3.2c-0.4-1.5-1.7-1.7-3.1-1.8c-0.3,0-0.7-0.1-1,0c-4,1-8.1,2-12,3.3
			c-0.5,0.2-1,1.6-0.9,2.4c0.1,0.8,0.8,1.6,1.4,2.5C508.4,36.5,512.9,34.8,517.4,33.1z"/>
		<path class="st0" d="M407,62.2c-0.1,0-0.1,0-0.2,0c0,0.1,0,0.1,0,0.2c0.1,0,0.1,0.1,0.2,0.1C407,62.4,407,62.3,407,62.2z"/>
		<path class="st0" d="M423.2,60.2c1.5-0.1,3.2-0.7,3.9-2.5c0.4-1.1-2.3-2.9-4.6-2.6c-2.2,0.3-4.4,1-6.6,1.6c-1.2,0.3-2.4,0.8-3.6,1
			c-3.9,0.5-4,0.5-5.3,4.6C412.6,63,417.8,60.4,423.2,60.2z"/>
		<path class="st0" d="M945.5,294.4c-4.6-0.2-9.1-0.2-13.7-0.1c-0.6,0-1.3,0.4-1.8,0.8c-0.5,0.4-1.2,1.1-1.1,1.4
			c0.2,0.8,0.7,2,1.3,2.2c4,1.1,11.4,0,18-2.3C948,294.8,946.7,294.4,945.5,294.4z"/>
		<path class="st0" d="M29.8,243.9c-0.5-0.2-1.8,0.4-2.3,1c-0.7,0.9-0.4,2.5-1.9,3c-4.3-5.3-4.3-5.3-9.1-0.9
			c4.1,0.7,4.3,0.6,6.1,3.2c0.9,1.2,2,1.6,3.3,1.6c3.2,0,4.8-1.7,5.1-5.7C31,245.3,30.4,244.1,29.8,243.9z"/>
		<path class="st0" d="M686.1,68.9c1.5-0.2,3.1-0.4,5.3-0.6c2.2-5.1,2.2-5.1,1.9-8.3c-7.4,0.9-7.4,0.9-8.2,2.6
			C688.7,63.9,684.1,66.7,686.1,68.9z"/>
		<path class="st0" d="M378.3,41.3c1.6-0.7,3.1-1.4,4.7-2.1c-1-1.9-2.4-1.7-3.6-1.4c-6,1.3-12,2.6-18,4c-0.2,0.1-0.3,0.9-0.5,1.8
			c3.1-0.5,5.9-1.1,8.7-1.5C372.5,41.7,375.4,41.5,378.3,41.3z"/>
		<path class="st0" d="M339.5,52c2.2,0,4.5,0.5,5.8-2l0.2,0.2c1.6,0.2,3.3,0.5,4.9,0.7c-1.6-0.3-3.3-0.6-4.9-0.8
			c0.2-1.6,0.6-3,2.6-3.4c1.9-0.4,3.8-0.7,5.6-1.4c0.6-0.2,0.9-1.2,1.8-2.7c-4.2,0.6-7.4,0.9-10.5,1.7c-1.4,0.3-2.5,1.6-3.8,2.5
			C342.8,49.2,341.3,50.7,339.5,52z"/>
		<path class="st0" d="M443.4,342.1c0,0.1,0.1,0.1,0.1,0.2c0-0.1,0-0.1,0.1-0.2C443.6,342.1,443.5,342.1,443.4,342.1
			C443.5,342.1,443.5,342.1,443.4,342.1z"/>
		<path class="st0" d="M434.5,338.9c0.2,1.5,0.5,2.9,0.7,4.3c2.9,1.1,5.8,1.4,8.2-1.1c-0.9-1.5-1.8-3.1-2.7-4.5
			C438.3,337.3,436.2,336.9,434.5,338.9z"/>
		<path class="st0" d="M18.7,301.9c-1.1,0.1-2.5,1-3.1,1.9c-0.9,1.4-2.4,3.2,0.1,5.3c1-1.6,2-3.1,3.2-4.9c1,0,2.3,0.2,3.5,0
			c1.2-0.2,2.3-0.8,3.7-1.3C23.6,299.8,21,301.6,18.7,301.9z"/>
		<path class="st0" d="M969.5,265.5c-3.4-0.2-6.5,0.5-9,3.9c2.8,0.4,5.3,0.4,7.8,0c0.6-0.1,1.2-0.5,1.7-0.9c0.4-0.4,0.8-1.1,0.7-1.7
			C970.6,266.3,969.9,265.6,969.5,265.5z"/>
		<path class="st0" d="M757.4,63c-0.5,0.1-1,0.6-1.6,1c0.3,0.5,0.4,1.4,0.8,1.6c3.5,1.3,6.9,0.5,10.2-0.9c0.2-0.1,0.5-0.7,0.4-0.8
			c-0.3-0.5-0.8-1.4-1.2-1.4C763.2,62.5,760.3,62.7,757.4,63z"/>
		<path class="st0" d="M571.3,16.1c1.3-0.2,2.8-0.4,5.1-0.7c-2.8-3.9,0.6-5.4,2-7.7c0,0,0,0,0.1,0c0,0,0,0-0.1-0.1l0,0
			c-2.1,0.7-4.1,1.4-6.7,2.3C572.3,11.9,568.6,13.3,571.3,16.1z"/>
		<path class="st0" d="M461.2,26.6c1.2,0.3,2.6,1.1,3.6,0.7c1.6-0.6,3-1.9,4.9-3.1c-3,0.1-5.5,0.1-8.1,0.2c-0.3,0-0.7,0.9-0.9,1.5
			C460.6,26,460.9,26.5,461.2,26.6z"/>
		<path class="st0" d="M432.7,53.2c-0.1,1.6-0.2,2.7-0.3,4.4c3.7-0.3,7.3,1.2,10.6-2.7c-2.2-0.2-3.7-0.3-5.2-0.6
			C436.3,54,434.7,53.6,432.7,53.2z"/>
		<path class="st0" d="M726.6,65.9c-0.1,0.1,0.7,0.9,1.1,1.4c0.3,0.1,0.6,0.3,0.9,0.4c3.6,1,5.4,0.8,6.2-0.8c0.1-0.3,0.1-0.7,0-0.9
			c-1.4-2.8-4-1.6-6.1-1.8C728,64.1,727.2,65.2,726.6,65.9z"/>
		<path class="st0" d="M404.6,39.4c2-1.9,4-3.8,6.1-5.8c-0.2-0.4-0.5-0.8-0.7-1.2c-2.5,0.7-4.9,1.4-7.2,2.1
			C402.2,36.8,401.4,38.8,404.6,39.4z"/>
		<path class="st0" d="M683.1,3.3c-0.1,0-0.2-0.1-0.3-0.1c-0.1,0-0.2,0-0.2,0.1c0.1,0.1,0.2,0.1,0.4,0.2
			C683,3.4,683.1,3.4,683.1,3.3z"/>
		<path class="st0" d="M687.5,4.4c4-0.8,8.2-0.4,12.6-2.4c-7.6-1.5-9.4-1.5-14.8,0c-0.8,0.2-1.5,0.9-2.2,1.4
			C684.6,3.8,686.2,4.6,687.5,4.4z"/>
		<path class="st0" d="M753.4,46.3c0.5,0.1,1.1,0.1,1.6,0.2c0.1-0.1,0.2-0.2,0.2-0.3c-0.1,0-0.2,0-0.4-0.1
			C754.4,46.2,753.9,46.2,753.4,46.3z"/>
		<path class="st0" d="M739.5,47.5c4.6-0.4,9.3-0.8,13.9-1.2c-3.9-0.5-7.9-1-11.8-1.3C740.6,44.9,738.8,45,739.5,47.5z"/>
		<path class="st0" d="M244.3,365.4c2,2.7,4,5.1,8.4,2.6C248.4,362.8,248.4,362.8,244.3,365.4z"/>
		<path class="st0" d="M704,61c-0.3-1.4-2.8-2.2-4.9-1.6c-1.7,0.4-2.1,1.7-1.6,5.5l-0.1,0.1l-0.1,0.1c0.2,0.1,0.3,0.1,0.5,0.2
			c-0.1-0.1-0.1-0.2-0.2-0.3c1.8-1,2.8,0.1,3.8,1.4c-0.1,0-0.1,0.1-0.2,0.1c0.1,0,0.2,0.1,0.3,0.1l0-0.3
			C704.1,65.4,704.5,63.3,704,61z"/>
		<path class="st0" d="M504.2,44.8c1.7,0.6,2.8,1,3.9,1.4c1.4,0.6,2.8,1.2,4.2,1.8c0.8-1.1,1.6-2.2,2.5-3.4
			C511.5,43.5,511.5,43.5,504.2,44.8z"/>
		<path class="st0" d="M512.3,48.1c-0.1,0.1-0.1,0.2-0.2,0.3c0,0,0,0,0,0c0.1-0.1,0.3-0.1,0.4-0.2C512.4,48.2,512.4,48.1,512.3,48.1
			z"/>
		<path class="st0" d="M359,348.9c-1.7-0.8-3.6-0.3-4.2,1.1c-0.7,1.6-0.1,3.5,1.3,4.2c1.6,0.8,3.6,0.2,4.3-1.1
			C361.2,351.7,360.4,349.6,359,348.9z"/>
		<path class="st0" d="M52.3,202.2c2.2-1.4,4.3-2.9,6.4-4.3l0.1,0.3c0.1-0.1,0.3-0.2,0.4-0.3c-0.2,0-0.3,0-0.5,0
			c-0.3-1.1-0.7-2.3-1-3.4c-1.9,1.2-3.9,2.3-5.6,3.7C51,199.3,50.2,200.9,52.3,202.2z"/>
		<path class="st0" d="M476.6,331.5c-0.4,0-0.7,0.7-1.1,1.1c0.7,1.5,2,1.5,3.1,0.9c1.8-1,3.5-1,5,0.4c0.5-0.6,1-1.2,1.6-2
			C482.2,330.7,479.4,331.6,476.6,331.5z"/>
		<path class="st0" d="M483.6,333.9c-0.1,0.1-0.1,0.2-0.2,0.3c0.1,0,0.3,0,0.4,0.1c0-0.1,0-0.1,0-0.2
			C483.7,334,483.7,334,483.6,333.9z"/>
		<path class="st0" d="M35.2,299.6c-0.7,1.9-1.4,3.9-2.2,6c3.7-0.3,4.3-0.4,4.5-1.4C37.8,302.4,38.1,300.4,35.2,299.6z"/>
		<path class="st0" d="M783.6,45.3c0.4-0.5,0.7-1.2,0.6-1.8c-0.3-1.8-1.7-1.6-3-1.3c-1,0.2-1.9,0.4-3.5,0.8c1,1.2,1.6,2.3,2.5,3
			C781.4,46.9,782.7,46.4,783.6,45.3z"/>
		<path class="st0" d="M445,338.9c-0.6,1-0.9,2.2-1.4,3.2c2.9,1.5,5.2-0.3,7.6-1.5c-0.9-0.1-1.6-0.7-2.3-1.6
			C447.1,336.8,446.2,336.8,445,338.9z"/>
		<path class="st0" d="M451.2,340.6c0.2,0,0.5,0.1,0.7,0c0.1,0,0.1,0,0.2-0.1c-0.1-0.1-0.2-0.2-0.4-0.3
			C451.6,340.4,451.4,340.5,451.2,340.6z"/>
		<path class="st0" d="M431.8,35c1.6-1.7,3.2-3.4,5.5-5.8c-5.5-0.4-5.8-0.3-6.6,2.6C430.5,32.9,430,34.2,431.8,35z"/>
		<path class="st0" d="M2.5,248.6c-0.8,0.2-2-0.1-2,1.3c0,0.3,0.3,0.7,0.5,0.7c0.9,0,1.8,0.1,2.6-0.2c0.9-0.3,1.6-1,2.4-1.6
			C4.8,247.6,3.6,248.4,2.5,248.6z"/>
		<path class="st0" d="M20.8,275c-0.1,1.8-0.4,3.7,2,6.2c0.9-2.4,1.6-3.8,1.9-5.3c0.1-0.7-0.3-1.8-0.9-2.3
			C22.9,272.9,20.9,273.8,20.8,275z"/>
		<path class="st0" d="M720.3,0.7c-3-1.1-5.3-0.9-7.6,0.1c-0.2,0.1-0.4,0.5-0.4,0.8c0,0.3,0.2,0.8,0.4,0.8
			C715.2,2.9,717.6,2.8,720.3,0.7z"/>
		<path class="st0" d="M694.1,6.3c-0.5,0.2-1.1,1-1,1.4c0.1,0.5,0.9,1.1,1.3,1.1c1.6,0,3.2-0.3,6.3-0.6C697.9,5.6,696,5.6,694.1,6.3
			z"/>
		<path class="st0" d="M557,37.5c-0.2,0.9-0.3,2.1,0.2,2.7c0.5,0.5,1.8,0.6,2.6,0.4c0.9-0.2,1.6-0.9,2.4-1.4c-0.7-1-1.3-2-2.2-2.9
			C558.9,35.4,557.3,36,557,37.5z"/>
		<path class="st0" d="M562.2,39.2c0.1,0.1,0.1,0.2,0.2,0.2c0-0.1,0-0.2,0.1-0.3C562.3,39.1,562.3,39.1,562.2,39.2
			C562.2,39.2,562.2,39.2,562.2,39.2z"/>
		<path class="st0" d="M709.5,66.7c1.1,0.5,2.5,0.3,3.7,0.3c0.1,0,0.5-1.4,0.3-1.5c-1-0.7-2.1-1.2-3.1-1.7c-0.1,0.2-0.3,0.4-0.4,0.6
			C709.4,65,706.9,65.5,709.5,66.7z"/>
		<path class="st0" d="M502.9,334.5c0.1,0,0.2,0.1,0.3,0.1c0.1-0.1,0.1-0.2,0.2-0.3c-0.1,0-0.2,0-0.3-0.1
			C503.1,334.4,503,334.4,502.9,334.5z"/>
		<path class="st0" d="M492.5,337.9c2.1-0.6,4.2-1.2,6.3-1.8c1.4-0.4,3.1-0.2,4-1.6C497.9,332.7,496.7,333.2,492.5,337.9z"/>
		<path class="st0" d="M758.5,24.1c0-0.5,0-1.4-0.3-1.5c-1.4-0.5-2.8-1.5-4.6,0.1c1.4,0.7,2.7,1.3,4.1,1.8
			C757.9,24.5,758.5,24.2,758.5,24.1z"/>
		<path class="st0" d="M69.5,194.4c-1.5,0.4-3,1.1-4.5,1.2c-2.2,0.1-4,1-5.7,2.3c2.1,0,4.2,0.2,6.2,0
			C67.6,197.8,68.9,196.4,69.5,194.4z"/>
		<path class="st0" d="M483.8,334.3c0.4,3.4,0.4,3.4,2.8,3.4c1.9,0,3.9,0.2,5.8,0.2l0,0c0,0,0,0,0,0c0,0,0,0,0,0
			C490,335.6,487.1,334.6,483.8,334.3z"/>
		<path class="st0" d="M496.4,36c0.5,0,1.4-0.6,1.5-1c0.1-0.8,0-2.2-0.5-2.5c-1.3-0.7-2.9-1-4.4-1.5c0.6,1.4,1.1,2.8,1.8,4.2
			C495,35.7,495.9,36,496.4,36z"/>
		<path class="st0" d="M493,31.1c0-0.1-0.1-0.2-0.1-0.3c0,0.1-0.1,0.2-0.1,0.3c0,0,0.1,0,0.1,0C492.9,31.1,493,31.1,493,31.1z"/>
		<path class="st0" d="M415,346.3c0.8,0.2,1.7,0.5,2.5,0.5c1.3,0,2.7-0.4,3-2c0.1-0.8-0.4-1.8-0.7-3.1
			C418,343.4,416.5,344.8,415,346.3z"/>
		<path class="st0" d="M414.7,346.3C414.7,346.2,414.7,346.2,414.7,346.3c-0.1,0-0.3,0.1-0.4,0.2c0.2,0,0.3,0,0.5,0
			c0.1-0.1,0.1-0.1,0.2-0.2C414.9,346.3,414.8,346.2,414.7,346.3L414.7,346.3z"/>
		<path class="st0" d="M681.5,7.7c-3-0.3-5.7-0.6-8.4-0.9l-0.1,0c-0.2,0.1-0.4,0.2-0.7,0.4c0.2-0.1,0.5-0.2,0.7-0.3
			C675.6,8.1,678.2,10.1,681.5,7.7z"/>
		<path class="st0" d="M778.5,61.8c0-0.2-0.3-0.7-0.5-0.8c-1.7-0.7-3.6,0.1-3.9,1.8c0,0.2,0.3,0.6,0.5,0.9
			C775.8,64.2,778.3,63.1,778.5,61.8z"/>
		<path class="st0" d="M567.1,323.4c-0.9-0.3-1.9-0.3-2.8-0.2c-1.1,0-1.7,0.7-1.4,1.8c0.2,0.5,0.8,0.9,1.3,1.5
			c0.9-0.1,1.8-0.2,2.7-0.5c0.5-0.2,1.1-0.8,1.2-1.3C568.2,324.3,567.5,323.6,567.1,323.4z"/>
		<path class="st0" d="M684.2,39.1c-0.1-0.1-0.2-0.1-0.3-0.1c-0.1,0.1-0.2,0.1-0.3,0.1c0.1,0,0.2,0.1,0.3,0.1
			C684.1,39.1,684.2,39.1,684.2,39.1z"/>
		<path class="st0" d="M694,38.7c-3.3-1-6.6-1.5-9.8,0.3C687.6,40.8,690.8,39.5,694,38.7z"/>
		<path class="st0" d="M38.6,271c-2.1,0.1-4.5-0.6-5.7,2c2.1,0.5,4.1,0.9,6.2,1.4C39.6,271.1,39.6,270.9,38.6,271z"/>
		<path class="st0" d="M32.8,273.1C32.9,273.1,32.9,273,32.8,273.1c0-0.1-0.1-0.1-0.2-0.1L32.8,273.1z"/>
		<path class="st0" d="M17,289.8c0-0.3,0.2-0.6,0.1-0.8c-0.1-0.2-0.5-0.4-0.7-0.3c-0.6,0.2-1.2,0.4-1.6,0.8
			c-0.4,0.3-0.5,0.9-0.8,1.4c0.5,0,1.1,0.2,1.6,0C16.1,290.7,16.5,290.2,17,289.8z"/>
		<path class="st0" d="M326.9,358.5c1.8,0.6,3.5,0.5,5-1.3C329.7,356.3,327.9,355.7,326.9,358.5z"/>
		<path class="st0" d="M342.1,352.7c0,0-0.1,0-0.2,0.1c0.1,0.1,0.1,0.1,0.2,0.2c-0.3,0.5-0.6,1.1-1,1.6c-0.5,0.7-1.2,1.6,0,2.2
			c0.4,0.2,1.3,0.1,1.7-0.2c1-0.7,0.6-1.5-0.2-2.2C342.3,353.9,342.3,353.2,342.1,352.7z"/>
		<path class="st0" d="M69.7,194.4c0,0-0.1-0.1-0.1-0.1c0,0.1,0,0.1-0.1,0.2C69.5,194.4,69.5,194.4,69.7,194.4
			C69.6,194.4,69.6,194.4,69.7,194.4z"/>
		<path class="st0" d="M76.2,194.7c-2.2-0.1-4.4-0.2-6.5-0.3c1.3,1.4,2.7,2.6,4.8,2.4C75.5,196.7,77,196.5,76.2,194.7z"/>
		<path class="st0" d="M755.3,46.2c2.9,0.7,5.4,0,7.7-1.8c-2,0.1-4.1,0-6,0.3C756.3,44.8,755.8,45.6,755.3,46.2z"/>
		<path class="st0" d="M146.2,378.9c-0.8,0.1-1.5,0.5-2.3,0.8c0.5,0.7,1,1.5,1.1,1.5c0.8-0.3,1.5-0.8,2.2-1.2
			C146.9,379.7,146.5,378.9,146.2,378.9z"/>
		<path class="st0" d="M710.4,63.4c-0.1,0.1-0.1,0.1-0.2,0.2c0.1,0,0.1,0.1,0.2,0.1c0-0.1,0.1-0.1,0.2-0.2
			C710.5,63.5,710.5,63.5,710.4,63.4z"/>
		<path class="st0" d="M710.6,59.3c-0.5,0-1.2,0.6-1.4,1.1c-0.6,1.4-0.1,2.4,1.2,3c0.5-0.7,1.1-1.4,1.4-2.1
			C712.1,60.4,711.8,59.3,710.6,59.3z"/>
		<path class="st0" d="M39.9,351.5c-1.2-0.4-3.1,0.4-3,1.3c0,0.2,0.4,0.4,0.5,0.7c1.3,0.5,3.1-0.2,2.9-1.3
			C40.4,351.9,40.1,351.6,39.9,351.5z"/>
		<path class="st0" d="M9.4,285.7c0.2,0.2,0.3,0.5,0.5,0.7c0.3,0,0.7,0,0.9-0.1c0.2-0.2,0.1-0.6,0.1-0.9
			C10.4,285.5,9.9,285.6,9.4,285.7z"/>
		<path class="st0" d="M0,261.7c0.2,0.2,0.4,0.4,0.6,0.6c0.5-0.2,0.9-0.3,1.4-0.5c-0.3-0.4-0.5-0.7-0.8-1.1
			C0.8,261.1,0.4,261.4,0,261.7z"/>
		<path class="st0" d="M26.6,256.8c-0.1-0.2-0.6-0.4-0.7-0.3c-0.6,0.6-3-0.2-1.7,1.9c0.1,0.2,1.5-0.5,2.3-0.7
			C26.6,257.4,26.7,257.1,26.6,256.8z"/>
		<path class="st0" d="M38.1,248.7c-0.2-0.5-0.3-1-0.5-1.5c-0.8,0.3-1.7,0.4-2.4,0.9c-0.3,0.2-0.1,1.1-0.2,1.6
			c0.8-0.1,1.7-0.2,2.5-0.4C37.7,249.3,37.9,248.9,38.1,248.7z"/>
		<path class="st0" d="M346.9,350.4c0.2,0.4,0.5,0.8,0.8,1.2c0,0,0.4-0.2,0.7-0.4c-0.2-0.4-0.5-0.8-0.8-1.1
			C347.5,350,347.1,350.3,346.9,350.4z"/>
		<path class="st0" d="M430.6,343.4c-0.2,0.2-0.4,0.5-0.4,0.8c0,0.2,0.4,0.7,0.4,0.6c1.3-0.5,2.6-1,3.9-1.5
			C433.3,343,431.9,342.4,430.6,343.4z"/>
		<path class="st0" d="M434.6,343.3c0.2,0.1,0.5,0.1,0.7,0.2c0-0.1,0-0.2,0-0.3c0,0-0.1,0-0.1,0
			C434.9,343.2,434.8,343.3,434.6,343.3z"/>
		<path class="st0" d="M471.1,337.6c-0.8,0-1.5,0.4-2.3,0.7c0.4,0.4,0.8,0.8,1.4,1.4c0.7-0.3,1.4-0.6,2.2-1
			C472,338.3,471.6,337.6,471.1,337.6z"/>
		<path class="st0" d="M564.1,16.2c-0.2-0.9-0.2-1.8-0.6-1.9c-0.5-0.2-1.4-0.2-1.8,0.1c-0.3,0.3-0.1,1.1-0.1,1.7
			C562.4,16.1,563.2,16.2,564.1,16.2z"/>
		<path class="st0" d="M553.2,16.7c-0.4-0.8-0.8-1.5-1.2-2.1c-0.1-0.1-0.8,0.1-0.8,0.1c0.1,0.8,0.2,1.7,0.3,2.5
			C552,17,552.5,16.9,553.2,16.7z"/>
		<path class="st0" d="M521,17.5c0-0.5-0.1-0.9-0.2-1.4c-0.5,0.2-0.9,0.4-1.4,0.7c0.3,0.4,0.6,0.8,1,1.1C520.4,18,521,17.7,521,17.5
			z"/>
		<path class="st0" d="M450.6,53.7c0.4-0.3,0.7-0.6,1.1-0.9c-0.1-0.2-0.2-0.5-0.3-0.7c-0.4,0.3-0.8,0.6-1.1,1
			C450.2,53.1,450.4,53.5,450.6,53.7z"/>
		<path class="st0" d="M381.3,43.1c-1.1-0.5-2-1-3-1.5c0,1.5-0.1,3-0.1,4.5C379.2,45.1,380.2,44.2,381.3,43.1z"/>
		<path class="st0" d="M378.3,41.6c0-0.1,0-0.2,0-0.3c0,0-0.1,0-0.1,0c-0.1,0-0.2,0.1-0.3,0.1C378.1,41.5,378.2,41.5,378.3,41.6z"/>
		<path class="st0" d="M373.1,46c1.7,0,3.4,0.1,5,0.1l0.1,0c0,0,0,0,0,0c0,0,0,0,0,0C376.5,46.3,375,43.8,373.1,46z"/>
		<path class="st0" d="M242.6,368.5c0,0.5,0.1,0.9,0.1,1.4c0.5-0.2,1-0.3,1.5-0.5c-0.3-0.4-0.5-0.8-0.8-1.1
			C243.2,368.2,242.6,368.4,242.6,368.5z"/>
		<path class="st0" d="M267.6,361c0,0.4,0,0.8,0,1.3c0.3-0.1,0.6-0.1,0.7-0.2c0.1-0.2,0-0.5,0-0.8
			C268.1,361.1,267.8,361.1,267.6,361z"/>
		<path class="st0" d="M577.9,324.3c0.1,0.5,0.3,0.9,0.4,1.3c0.5-0.2,0.9-0.4,1.4-0.6c-0.3-0.4-0.7-0.8-1.1-1.1
			C578.5,323.9,577.9,324.2,577.9,324.3z"/>
		<path class="st0" d="M647.9,312.6c-0.4-0.3-0.8-0.8-1.2-0.9c-0.5,0-0.9,0.3-1.4,0.5c0.4,0.3,0.7,0.6,1.2,0.7
			C646.9,313.1,647.4,312.8,647.9,312.6z"/>
		<path class="st0" d="M645.3,312.3c-0.1-0.1-0.2-0.2-0.3-0.2c-0.1,0.1-0.1,0.1-0.2,0.2c0.1,0,0.2,0.1,0.3,0.1
			C645.2,312.3,645.2,312.3,645.3,312.3z"/>
		<path class="st0" d="M338.7,52.2c0.1,0,0.2,0.1,0.3,0.1c0.1-0.1,0.3-0.2,0.4-0.3c-0.1,0-0.3,0-0.4,0
			C338.9,52.1,338.8,52.1,338.7,52.2z"/>
		<path class="st0" d="M338.7,52.2c-1.1-0.4-2.2-0.8-3.3-1.2C336.2,52.4,337.1,53.3,338.7,52.2z"/>
		<path class="st0" d="M418.3,36.8c0-0.3-0.1-0.6-0.1-0.9c-0.5,0.2-1,0.4-1.5,0.7c-0.1,0.1,0,0.6,0,0.9
			C417.2,37.3,417.7,37,418.3,36.8z"/>
		<path class="st0" d="M535.6,15.7c-0.1-0.5-0.3-0.9-0.4-1.4c-0.5,0.2-1,0.4-1.5,0.6c0,0,0.2,0.5,0.2,0.8
			C534.5,15.7,535.1,15.7,535.6,15.7z"/>
		<path class="st0" d="M714.5,61.9c0.5-0.2,0.9-0.4,1.4-0.6c0-0.3-0.1-0.6-0.1-0.9c-0.5,0.2-0.9,0.3-1.3,0.6
			C714.3,61.1,714.4,61.6,714.5,61.9z"/>
		<path class="st0" d="M744.1,65.2c0.8,0.2,1.6,0.4,2.4,0.4c0.2,0,0.5-0.8,0.7-1.3c0-0.1-0.3-0.5-0.6-0.6
			C745.4,63.6,744.3,63.8,744.1,65.2z"/>
		<path class="st0" d="M685.7,28.9c-0.2,0-0.4-0.1-0.7-0.1c0,0-0.1,0.1-0.1,0.1c0.1,0,0.1,0.1,0.2,0.1C685.3,29,685.5,29,685.7,28.9
			z"/>
		<path class="st0" d="M688,28.6c-0.3,0-0.6,0-1,0c-0.5,0.1-0.9,0.2-1.4,0.3c0.4,0.1,0.9,0.1,1.3,0.1
			C687.3,29.1,687.6,28.8,688,28.6z"/>
		<path class="st0" d="M772,44.7c-0.4-0.3-1-1-1.3-0.9c-0.7,0.2-1.3,0.6-1.9,1c0.7,0.3,1.4,0.6,2.1,0.7
			C771.2,45.5,771.7,45,772,44.7z"/>
		<path class="st0" d="M768.8,44.8c-0.1-0.1-0.3-0.1-0.4-0.2c-0.2,0.1-0.3,0.2-0.5,0.2c0.2,0,0.5,0.1,0.7,0.1
			C768.7,44.9,768.8,44.9,768.8,44.8z"/>
		<path class="st0" d="M757.1,35.4c0.3-0.2,0.5-0.4,0.7-0.6c-0.5,0.1-1,0.2-1.5,0.3C756.6,35.2,757,35.5,757.1,35.4z"/>
		<path class="st0" d="M735.2,26.4c-0.2,0.4-0.3,0.9-0.4,1.3c0.5,0.1,1,0.1,1.5,0.2c-0.1-0.5-0.1-1-0.3-1.4
			C735.9,26.4,735.2,26.4,735.2,26.4z"/>
		<path class="st0" d="M677.5,3.2c-1.9-0.2-3.9-0.5-5.8-0.7C673.5,3.5,675.3,4.9,677.5,3.2z"/>
		<path class="st0" d="M671.6,2.5c-0.2-0.1-0.3-0.2-0.5-0.3c0,0.1-0.1,0.2-0.1,0.2c0.1,0,0.2,0,0.3,0C671.4,2.5,671.5,2.5,671.6,2.5
			z"/>
		<path class="st0" d="M745.8,26.6c0.4-0.1,0.8-0.3,1.2-0.4c-0.1-0.5-0.1-1-0.2-1.5c-0.2,0.1-0.6,0.2-0.7,0.3
			C746,25.6,745.9,26.1,745.8,26.6z"/>
		<path class="st0" d="M774.7,24.2c-0.2-0.3-0.5-0.6-0.7-0.9c0,0.3-0.1,0.6,0,0.8C774,24.2,774.4,24.2,774.7,24.2z"/>
		<path class="st0" d="M752.9,14.9c0.2-0.2,0.4-0.3,0.5-0.5c0-0.1-0.3-0.3-0.4-0.4c-0.2,0.2-0.4,0.3-0.4,0.5
			C752.4,14.6,752.7,14.8,752.9,14.9z"/>
		<polygon class="st0" points="706.7,6.1 705.8,6 706.3,6.7 		"/>
		<path class="st0" d="M678.1,3.2c-0.1-0.1-0.2-0.1-0.3-0.1c-0.1,0.1-0.2,0.1-0.3,0.2c0.1,0,0.3,0,0.4,0
			C678,3.2,678.1,3.2,678.1,3.2z"/>
		<path class="st0" d="M682.6,3.3c-1.5-0.7-2.9-1.3-4.5-0.2C679.6,3.9,681.1,3.8,682.6,3.3z"/>
		<path class="st0" d="M760.3,34.1c-0.4,0.1-0.9,0.3-1.3,0.4C759.5,34.8,760,35.2,760.3,34.1z"/>
		<path class="st0" d="M758.6,34.7c0.1,0,0.3-0.1,0.4-0.1c-0.2-0.1-0.4-0.2-0.6-0.2c-0.2,0.2-0.4,0.3-0.6,0.4
			C758.1,34.7,758.4,34.7,758.6,34.7z"/>
		<path class="st0" d="M763.6,44.4c-0.1-0.1-0.2-0.1-0.4-0.2c-0.1,0.1-0.2,0.1-0.3,0.2c0.1,0,0.3,0,0.4,0
			C763.4,44.4,763.5,44.4,763.6,44.4z"/>
		<path class="st0" d="M767.9,44.9c-1.4-0.2-2.9-0.3-4.3-0.5C765,45.4,766.4,45.7,767.9,44.9z"/>
		<path class="st0" d="M639.7,10.4l-0.1-0.2c-0.1,0-0.2,0-0.2,0.1c0.1,0.1,0.3,0.2,0.4,0.2c0.1-0.1,0.3-0.1,0.4-0.2
			c-0.2,0-0.4-0.1-0.6-0.1C639.6,10.3,639.6,10.3,639.7,10.4z"/>
		<path class="st0" d="M643.8,10c0.1,0,0.3,0,0.4,0.1c0.2-0.1,0.4-0.1,0.6-0.2c-0.2,0-0.4,0-0.6-0.1C644,9.8,643.9,9.9,643.8,10z"/>
		<path class="st0" d="M640.2,10.4c1.3,0.2,2.5,0.5,3.6-0.4C642.5,9.6,641.3,9.6,640.2,10.4z"/>
		<path class="st0" d="M968.7,130.9c-0.4,0.2-0.8,0.4-1.2,0.6C968.1,131.8,968.7,132.4,968.7,130.9z"/>
		<path class="st0" d="M967.5,131.5c-0.1-0.1-0.2-0.1-0.3-0.2c0,0.1-0.1,0.1-0.1,0.2c0.1,0,0.2,0,0.2,0.1
			C967.4,131.6,967.5,131.6,967.5,131.5z"/>
		<path class="st0" d="M694.9,38.7c-0.1,0-0.2-0.1-0.3-0.1c-0.2,0-0.4,0.1-0.5,0.1c0.2,0.1,0.4,0.1,0.6,0.2
			C694.7,38.8,694.8,38.8,694.9,38.7z"/>
		<path class="st0" d="M698.9,38.1c-0.1,0.1-0.1,0.1-0.2,0.2c0.1,0,0.2,0.1,0.3,0.1C699.1,38.4,698.9,38.1,698.9,38.1z"/>
		<path class="st0" d="M698.7,38.3c-1.3-0.4-2.7-0.6-3.8,0.4C696.2,39.1,697.6,39.4,698.7,38.3z"/>
		<path class="st0" d="M729.9,60c-0.3,0.2-0.6,0.3-0.7,0.5c-0.1,0.2,0.1,0.6,0.2,0.8c0.2-0.2,0.6-0.3,0.7-0.5
			C730.1,60.6,729.9,60.3,729.9,60z"/>
		<path class="st0" d="M742.3,65.7c0.5-0.2,1-0.3,1.5-0.5C743.1,64.9,742.5,64.2,742.3,65.7z"/>
		<path class="st0" d="M743.7,65.3c0.1,0.1,0.2,0.1,0.3,0.2c0-0.1,0-0.1,0.1-0.2c-0.1,0-0.1,0-0.2,0
			C743.9,65.2,743.8,65.2,743.7,65.3z"/>
		<path class="st0" d="M583.6,9.3c-1.7-0.5-3.5-1.1-5.2-1.6C579.9,9.4,581.5,10.2,583.6,9.3z"/>
		<path class="st0" d="M586.6,15c-0.1,0-0.1-0.1-0.2-0.1c0.2,0.1,0.3,0.2,0.5,0.3c0,0,0-0.1,0-0.1c0,0-0.1,0-0.1,0
			C586.7,15.1,586.7,15.1,586.6,15z"/>
		<path class="st0" d="M586.5,15C585.8,14.6,586,14.7,586.5,15L586.5,15z"/>
		<path class="st0" d="M701.2,66.4c-1.1-0.4-2.3-0.8-3.4-1.2C698.7,66.3,699.6,67.4,701.2,66.4z"/>
		<polygon class="st0" points="676.2,69.9 675.7,69.7 675.7,70.4 		"/>
		<path class="st0" d="M965.5,216.5c1.2,0.1,1.4-0.6,1.4-1.5c-0.6,0.2-1.1,0.4-1.6,0.7C965.2,215.7,965.4,216.5,965.5,216.5z"/>
		<polygon class="st0" points="419.7,32 419.5,32.5 420.2,32.5 		"/>
		<path class="st0" d="M351.6,51.1c0.1-0.4,0.2-0.9,0.3-1.3C351.8,50.2,351.7,50.6,351.6,51.1c-0.4-0.1-0.8-0.1-1.1-0.2
			C350.8,51,351.2,51.1,351.6,51.1L351.6,51.1z"/>
		<path class="st0" d="M551.3,324.8c0.1,0.4,0.2,0.8,0.4,1.1c0.2-0.2,0.3-0.4,0.5-0.5c-0.1-0.2-0.1-0.6-0.2-0.7
			C551.8,324.6,551.5,324.7,551.3,324.8z"/>
		<path class="st0" d="M52.6,164.2l0.1,0.1c0.1-0.1,0.2-0.1,0.3-0.2c-0.2,0-0.3,0-0.5-0.1c-0.2,0.2-0.4,0.3-0.6,0.4
			c0.2,0,0.5-0.1,0.7-0.1C52.7,164.4,52.7,164.3,52.6,164.2z"/>
		<path class="st0" d="M52,164.5c-1,0.1-2,0.2-3,0.3C50,165,51,165.1,52,164.5z"/>
		<path class="st0" d="M49,164.8c-0.3-0.1-0.6-0.1-0.9-0.2c0,0.1-0.1,0.2-0.1,0.3c0.1,0,0.2,0,0.3,0C48.5,164.9,48.7,164.8,49,164.8
			z"/>
		<path class="st0" d="M47.4,166.4c0,0.1-0.1,0.2-0.1,0.2c0,0,0.1,0,0.1,0.1c0.1-0.1,0.2-0.1,0.2-0.2
			C47.6,166.5,47.5,166.4,47.4,166.4z"/>
		<path class="st0" d="M42.9,164.1c-2.2,0.3-4.4,0.6-6.5,1c-1.8,0.4-3.9,0.2-4.8,2.4c-0.2,0-0.3,0-0.5-0.1c0.1,0.1,0.2,0.1,0.3,0.2
			c0.6,0.2,1.2,0.3,1.9,0.5c3.1,1.1,5.7,0.7,7.6-2.2C41.3,165.3,42.2,164.8,42.9,164.1c1.5,0.8,3,1.5,4.5,2.3c0.2-0.5,0.4-1,0.6-1.6
			C46.3,164.6,44.6,164.4,42.9,164.1z"/>
		<path class="st0" d="M30.7,167.5c0.1,0,0.2,0,0.3,0c-0.3-0.2-0.6-0.4-0.8-0.6C30.4,167.1,30.5,167.4,30.7,167.5z"/>
		<path class="st0" d="M452.1,340.6c0.3,0.3,0.7,0.5,1.1,0.6c0.3,0.1,0.6-0.5,1-0.7c-0.2-0.1-0.5-0.4-0.7-0.4
			C453,340.2,452.6,340.4,452.1,340.6z"/>
		<path class="st0" d="M413.4,347.2c0.3-0.2,0.7-0.5,1-0.7c-0.4,0-0.9,0-1.3,0C413.2,346.7,413.3,346.9,413.4,347.2z"/>
		<path class="st0" d="M398,343.7c0.1,0.3,0.2,0.7,0.3,0.7c0.5,0,1-0.1,1.5-0.1c-0.1-0.3-0.2-0.5-0.3-0.8
			C399.1,343.6,398.6,343.6,398,343.7z"/>
		<path class="st0" d="M340.7,353.1c0.4-0.1,0.8-0.3,1.2-0.4c-0.2-0.3-0.4-0.5-0.7-0.8C341.1,352.3,340.9,352.7,340.7,353.1z"/>
		<path class="st0" d="M308.2,359.5c-2.1,0.2-4.7,0.6-7.3,0.8c-1.2,0.1-2.9,0.1-3.7-0.7c-3.7-3.6-8-2-12-1.4c-0.7,0.1-1.5,1.2-1.8,2
			c-0.3,1.2-0.2,2.5-0.3,4.2c8.9,0,17.2-2.2,25.6-2.8c1.5-0.1,3-0.9,4.8-1.5c0.3-2.5,0.5-4.8,0.7-7c0.1,0,0.2,0,0.3,0
			c-0.1,0-0.1-0.1-0.2-0.1C312.5,355.1,310.5,357.1,308.2,359.5z"/>
		<path class="st0" d="M315.6,354c0.1-0.3,0.1-0.6,0.2-0.9c-0.4,0-0.8,0-1.1,0C315,353.5,315.3,353.7,315.6,354z"/>
		<path class="st0" d="M42.6,255.7c0.1,0.1,0.3,0.1,0.4,0.1c-0.3-0.2-0.6-0.4-1-0.6C42.2,255.4,42.4,255.6,42.6,255.7z"/>
		<path class="st0" d="M326.1,358.6c0.2,0,0.4,0.1,0.7,0.1c0-0.1,0.1-0.1,0.1-0.2c-0.1,0-0.1,0-0.2-0.1
			C326.5,358.5,326.3,358.5,326.1,358.6z"/>
		<path class="st0" d="M325.3,358.7c0.3-0.1,0.5-0.1,0.8-0.2c-0.1,0-0.1,0-0.2,0C325.8,358.5,325.5,358.7,325.3,358.7z"/>
		<polygon class="st0" points="51.1,285.7 51.2,286.3 51.7,285.8 		"/>
		<polygon class="st0" points="235,366.3 235.2,365.8 234.5,365.9 		"/>
		<path class="st0" d="M11.5,297.3c0.1,0.3,0.2,0.7,0.3,0.8c0.5,0.1,1,0,1.6,0c-0.1-0.3-0.2-0.7-0.3-0.8
			C12.6,297.3,12,297.3,11.5,297.3z"/>
		<path class="st0" d="M53.4,350.1c-0.3,0.3-0.6,0.5-0.9,0.8C53,351.1,53.7,351.5,53.4,350.1z"/>
		<path class="st0" d="M50.6,351.6c0.4-0.2,0.7-0.4,1.1-0.6C51.2,350.8,50.6,350.4,50.6,351.6z"/>
		<path class="st0" d="M52.4,350.9c-0.1,0-0.3-0.1-0.4-0.1c-0.1,0.1-0.2,0.1-0.4,0.2c0.2,0.1,0.4,0.1,0.5,0.1
			C52.2,351,52.3,351,52.4,350.9z"/>
	</g>
	<g>
		<g>
			<path class="st1" d="M377.4,150.8c-19.4-26.7-56.8-32.6-83.5-13.2c-2.6,1.9-9,6.6-17.5,12.7c10.7,5.2,22.2,13.1,33.2,22.6
				l43.6-29c-0.9,4.8-7.8,27-19.7,53.4c8.2,9.9,15,20.4,19.7,30.8H318c-11.8,21.3-26.3,42.2-42.9,56.8c5.4-18.6,8-38.1,7.6-56.8
				h-98.3l93.1-37.6c-8.4-30.7-26.9-54.9-56.2-62.3c-23.2-6.2-48.9,2-63.8,22.6c-19.4,26.7-13.5,64.1,13.2,83.5
				c6.7,4.8,96.8,70.3,96.8,70.3s90.1-65.5,96.8-70.3C390.9,214.9,396.8,177.5,377.4,150.8z"/>
			<g>
				<polygon class="st1" points="580.2,190.9 566.1,153.2 537.8,153.2 571.4,228.2 588.9,228.2 622,153.2 594.3,153.2 				"/>
				<path class="st1" d="M529.3,190.8c0,23.4-16.4,40-39.3,40c-6.8,0-13-1.8-18.3-5v29.5h-25.5V153.3h17.6l3.2,6
					c6.2-5.3,14.1-8.4,23-8.4C512.9,150.8,529.3,167.4,529.3,190.8z M503.3,190.8c0-9.9-7.1-17.2-16.8-17.2s-16.8,7.3-16.8,17.2
					c0,9.9,7.1,17.2,16.8,17.2C496.1,207.9,503.3,200.6,503.3,190.8z"/>
				<path class="st1" d="M714.1,126.2v102.1H695l-2.4-5.6c-6.1,5.1-13.9,8.1-22.6,8.1c-23,0-39.4-16.7-39.4-40
					c0-23.3,16.4-40,39.4-40c6.9,0,13.3,1.9,18.6,5.2v-29.8H714.1z M690.2,190.8c0-9.8-7.1-17.2-16.8-17.2
					c-9.7,0-16.8,7.4-16.8,17.2c0,9.8,7.1,17.2,16.8,17.2C683.1,207.9,690.2,200.6,690.2,190.8z"/>
				<path class="st1" d="M816.2,153.2v75h-20l-2.2-5.3c-6.1,5-13.9,7.8-22.6,7.8c-22.9,0-39.3-16.7-39.3-40
					c0-23.2,16.4-39.8,39.3-39.8c8.8,0,16.7,2.9,22.9,8.1l2.6-5.8L816.2,153.2z M791.6,190.8c0-9.7-7.1-17-16.8-17
					c-9.7,0-16.8,7.3-16.8,17c0,9.8,7.1,17.1,16.8,17.1C784.5,207.9,791.6,200.6,791.6,190.8z"/>
			</g>
		</g>
	</g>
</g>
</svg>
