<?xml version="1.0" encoding="UTF-8" standalone="no" ?>
<!DOCTYPE svg PUBLIC "-//W3C//DTD SVG 1.1//EN" "http://www.w3.org/Graphics/SVG/1.1/DTD/svg11.dtd">
<svg xmlns="http://www.w3.org/2000/svg" xmlns:xlink="http://www.w3.org/1999/xlink" version="1.1" width="220" height="80" viewBox="0 0 220 80" xml:space="preserve">
<desc>Created with Fabric.js 5.3.0</desc>
<defs>
</defs>
<g transform="matrix(1.7452768445 0 0 1.7452767242 102.2533949343 40.951)" id="eofXBp_zoh_JYMtHOkopE"  >
<path style="stroke: none; stroke-width: 0; stroke-dasharray: none; stroke-linecap: butt; stroke-dashoffset: 0; stroke-linejoin: miter; stroke-miterlimit: 4; fill: rgb(255,255,255); fill-rule: nonzero; opacity: 1;"  transform=" translate(0, 0)" d="M -45.107 11.352 L -52.159 11.352 L -52.159 -19.178 L -39.129999999999995 -19.178 C -37.66799999999999 -19.178 -36.32767 -18.884 -35.108999999999995 -18.296 C -33.89099999999999 -17.708669999999998 -32.837669999999996 -16.92033 -31.948999999999995 -15.931 C -31.060329999999993 -14.942329999999998 -30.372329999999994 -13.831669999999999 -29.884999999999994 -12.599 C -29.397669999999994 -11.36633 -29.153999999999993 -10.105 -29.153999999999993 -8.815000000000001 L -29.153999999999993 -8.815000000000001 C -29.153999999999993 -7.0663300000000016 -29.562329999999992 -5.403670000000002 -30.378999999999994 -3.827000000000001 C -31.196329999999993 -2.250330000000001 -32.32899999999999 -0.9673300000000009 -33.776999999999994 0.021999999999999353 C -35.224329999999995 1.0106699999999993 -36.937 1.5049999999999994 -38.91499999999999 1.5049999999999994 L -38.91499999999999 1.5049999999999994 L -45.10699999999999 1.5049999999999994 z M -45.107 -12.986 L -45.107 -4.644 L -39.345 -4.644 C -38.80033 -4.644 -38.29867 -4.8016700000000005 -37.839999999999996 -5.117 C -37.38133 -5.43233 -37.008669999999995 -5.90533 -36.721999999999994 -6.536 C -36.43532999999999 -7.16667 -36.291999999999994 -7.94067 -36.291999999999994 -8.858 L -36.291999999999994 -8.858 C -36.291999999999994 -9.804 -36.456669999999995 -10.585 -36.785999999999994 -11.201 C -37.11599999999999 -11.81767 -37.53166999999999 -12.26933 -38.032999999999994 -12.556000000000001 C -38.535 -12.842670000000002 -39.05832999999999 -12.986 -39.602999999999994 -12.986 L -39.602999999999994 -12.986 z M -27.649 4.601 L -27.649 4.601 C -27.649 3.1103300000000003 -27.233330000000002 1.806 -26.402 0.6880000000000002 C -25.57067 -0.42999999999999994 -24.424 -1.3113299999999999 -22.962 -1.956 C -21.5 -2.60133 -19.823 -2.924 -17.931 -2.924 L -17.931 -2.924 C -17.01367 -2.924 -16.110670000000002 -2.8449999999999998 -15.222000000000001 -2.687 C -14.333330000000002 -2.52967 -13.559330000000001 -2.30767 -12.900000000000002 -2.021 L -12.900000000000002 -2.021 L -12.900000000000002 -3.01 C -12.900000000000002 -4.2426699999999995 -13.272670000000002 -5.18867 -14.018000000000002 -5.848 C -14.763330000000003 -6.50733 -15.895670000000003 -6.837 -17.415000000000003 -6.837 L -17.415000000000003 -6.837 C -18.676330000000004 -6.837 -19.859 -6.622 -20.963 -6.192 C -22.06633 -5.7620000000000005 -23.23433 -5.14567 -24.467000000000002 -4.343 L -24.467000000000002 -4.343 L -26.531000000000002 -8.729 C -25.04033 -9.703669999999999 -23.485000000000003 -10.434669999999999 -21.865000000000002 -10.921999999999999 C -20.24567 -11.409329999999999 -18.533 -11.652999999999999 -16.727000000000004 -11.652999999999999 L -16.727000000000004 -11.652999999999999 C -13.344330000000003 -11.652999999999999 -10.714330000000004 -10.842999999999998 -8.837000000000003 -9.222999999999999 C -6.959000000000003 -7.603669999999999 -6.020000000000003 -5.260329999999999 -6.020000000000003 -2.1929999999999987 L -6.020000000000003 -2.1929999999999987 L -6.020000000000003 3.6980000000000013 C -6.020000000000003 4.386000000000001 -5.912330000000003 4.866330000000001 -5.697000000000003 5.139000000000001 C -5.482330000000003 5.411000000000001 -5.1026700000000025 5.5756700000000015 -4.5580000000000025 5.633000000000001 L -4.5580000000000025 5.633000000000001 L -4.5580000000000025 11.352 C -5.131330000000003 11.46667 -5.669000000000002 11.55267 -6.171000000000003 11.61 C -6.672330000000003 11.66733 -7.109330000000003 11.696 -7.482000000000003 11.696 L -7.482000000000003 11.696 C -8.772000000000002 11.696 -9.753670000000003 11.437999999999999 -10.427000000000003 10.922 C -11.101000000000003 10.406 -11.524000000000003 9.70367 -11.696000000000003 8.815000000000001 L -11.696000000000003 8.815000000000001 L -11.825000000000003 7.826000000000001 C -12.828330000000003 9.116000000000001 -14.025000000000002 10.098 -15.415000000000003 10.772000000000002 C -16.805670000000003 11.445330000000002 -18.260670000000005 11.782000000000002 -19.78 11.782000000000002 L -19.78 11.782000000000002 C -21.270670000000003 11.782000000000002 -22.611 11.466670000000002 -23.801000000000002 10.836000000000002 C -24.99033 10.205330000000002 -25.929000000000002 9.345330000000002 -26.617 8.256000000000002 C -27.305 7.166670000000002 -27.649 5.948330000000002 -27.649 4.601000000000003 z M -13.975 5.461 L -13.975 5.461 C -13.65967 5.203 -13.40167 4.91633 -13.201 4.601 C -13.00033 4.28567 -12.9 3.98467 -12.9 3.698 L -12.9 3.698 L -12.9 1.677 C -13.47333 1.44767 -14.11133 1.26867 -14.814 1.1400000000000001 C -15.516 1.0106700000000002 -16.168 0.9460000000000002 -16.77 0.9460000000000002 L -16.77 0.9460000000000002 C -18.03133 0.9460000000000002 -19.077669999999998 1.22567 -19.909 1.7850000000000001 C -20.74033 2.3436700000000004 -21.156 3.08167 -21.156 3.999 L -21.156 3.999 C -21.156 4.515000000000001 -21.01267 4.988 -20.726 5.418 C -20.439329999999998 5.848 -20.044999999999998 6.192 -19.543 6.45 C -19.04167 6.708 -18.447 6.837 -17.759 6.837 L -17.759 6.837 C -17.071 6.837 -16.383 6.708 -15.695 6.449999999999999 C -15.007 6.191999999999999 -14.43367 5.862329999999999 -13.975 5.460999999999999 z M 13.287 -11.524 L 13.287 -5.331999999999999 C 11.62433 -5.331999999999999 10.119330000000001 -5.066669999999999 8.772000000000002 -4.535999999999999 C 7.4246700000000025 -4.0059999999999985 6.450000000000002 -3.2249999999999988 5.8480000000000025 -2.1929999999999987 L 5.8480000000000025 -2.1929999999999987 L 5.8480000000000025 11.352 L -1.0319999999999974 11.352 L -1.0319999999999974 -11.222999999999999 L 5.289000000000002 -11.222999999999999 L 5.289000000000002 -6.664999999999999 C 6.063000000000002 -8.18433 7.066330000000002 -9.373999999999999 8.299000000000003 -10.233999999999998 C 9.531670000000004 -11.093999999999998 10.821670000000003 -11.538329999999998 12.169000000000004 -11.566999999999998 L 12.169000000000004 -11.566999999999998 C 12.484330000000003 -11.566999999999998 12.721000000000004 -11.566999999999998 12.879000000000005 -11.566999999999998 C 13.036330000000005 -11.566999999999998 13.172330000000004 -11.552669999999999 13.287000000000004 -11.524 z M 29.455 4.687 L 30.787999999999997 10.148 C 30.157329999999998 10.405999999999999 29.462329999999998 10.664 28.702999999999996 10.922 C 27.942999999999994 11.18 27.147329999999997 11.388 26.315999999999995 11.546000000000001 C 25.484669999999994 11.703330000000001 24.667669999999994 11.782000000000002 23.864999999999995 11.782000000000002 L 23.864999999999995 11.782000000000002 C 22.718329999999995 11.782000000000002 21.664999999999996 11.588670000000002 20.704999999999995 11.202000000000002 C 19.744329999999994 10.814670000000001 18.984669999999994 10.176670000000001 18.425999999999995 9.288000000000002 C 17.866669999999996 8.399330000000003 17.586999999999996 7.224000000000002 17.586999999999996 5.762000000000002 L 17.586999999999996 5.762000000000002 L 17.586999999999996 -6.019999999999998 L 14.705999999999996 -6.019999999999998 L 14.705999999999996 -11.222999999999999 L 17.586999999999996 -11.222999999999999 L 17.586999999999996 -18.404 L 24.466999999999995 -18.404 L 24.466999999999995 -11.222999999999999 L 29.067999999999994 -11.222999999999999 L 29.067999999999994 -6.019999999999999 L 24.466999999999995 -6.019999999999999 L 24.466999999999995 3.397000000000001 C 24.466999999999995 4.142330000000001 24.653329999999997 4.6800000000000015 25.025999999999996 5.010000000000002 C 25.398669999999996 5.339330000000001 25.871669999999995 5.504000000000001 26.444999999999997 5.504000000000001 L 26.444999999999997 5.504000000000001 C 26.932329999999997 5.504000000000001 27.455669999999998 5.418000000000001 28.014999999999997 5.246000000000001 C 28.573669999999996 5.074000000000002 29.053669999999997 4.887670000000002 29.455 4.687000000000001 z M 40.334 11.352 L 33.454 11.352 L 33.454 -11.222999999999999 L 40.334 -11.222999999999999 z M 40.334 -13.803 L 33.454 -13.803 L 33.454 -20.038 L 40.334 -20.038 z M 43.86 20.038 L 43.86 20.038 C 42.742 20.038 41.66 19.859 40.614 19.501 C 39.56733 19.14233 38.62833 18.604670000000002 37.797 17.888 L 37.797 17.888 L 40.678 13.201 C 40.96467 13.51633 41.315999999999995 13.74567 41.732 13.889000000000001 C 42.14733 14.032330000000002 42.57 14.104000000000001 43 14.104000000000001 L 43 14.104000000000001 C 43.43 14.104000000000001 43.817 14.011000000000001 44.161 13.825000000000001 C 44.505 13.638330000000002 44.77733 13.358670000000002 44.978 12.986 C 45.178670000000004 12.613330000000001 45.279 12.19767 45.279 11.739 L 45.279 11.739 L 45.279 -11.222999999999999 L 52.159000000000006 -11.222999999999999 L 52.159000000000006 11.223000000000003 C 52.159000000000006 12.943000000000003 51.793330000000005 14.469670000000002 51.062000000000005 15.803000000000003 C 50.33133 17.13567 49.342670000000005 18.174670000000003 48.096000000000004 18.92 C 46.848670000000006 19.66533 45.43667000000001 20.038 43.86000000000001 20.038 z M 52.159 -13.803 L 45.278999999999996 -13.803 L 45.278999999999996 -20.038 L 52.159 -20.038 z" stroke-linecap="round" />
</g>
<g transform="matrix(0.58 0 0 0.58 207.7261410788 54.2634854772)" id="4YbzQ2owRk2ZNw7XnAQjA"  >
<path style="stroke: rgb(175,225,19); stroke-width: 0; stroke-dasharray: none; stroke-linecap: butt; stroke-dashoffset: 0; stroke-linejoin: miter; stroke-miterlimit: 4; fill: rgb(247,47,58); fill-rule: nonzero; opacity: 1;"  transform=" translate(0, 0)" d="M -11.41079 -11.41079 L 11.41079 -11.41079 L 11.41079 11.41079 L -11.41079 11.41079 z" stroke-linecap="round" />
</g>
</svg>